
<svg xmlns="http://www.w3.org/2000/svg" id="a" viewBox="0 0 865.76 682.89">
  <g>
    <g>
      <rect x="330.15" y="58.43" width="293.13" height="573.18" rx="23.26" ry="23.26" fill="#eaebeb"></rect>
      <path d="M600.02,632.11h-246.62c-13.1,0-23.75-10.66-23.75-23.76V81.69c0-13.1,10.66-23.76,23.75-23.76h246.62c13.1,0,23.76,10.66,23.76,23.76V608.36c0,13.1-10.66,23.76-23.76,23.76ZM353.4,58.93c-12.55,0-22.75,10.21-22.75,22.76V608.36c0,12.55,10.21,22.76,22.75,22.76h246.62c12.55,0,22.76-10.21,22.76-22.76V81.69c0-12.55-10.21-22.76-22.76-22.76h-246.62Z" fill="#2f2e41"></path>
    </g>
    <g>
      <path d="M231.7,275.34l15.17-5.43c1.14-.41,2.4,.06,3.01,1.1l19.29,33.33-19.04,7.63-19.65-33.25c-.75-1.26-.16-2.9,1.22-3.39Z" fill="#fff"></path>
      <path d="M250.12,312.48c-.17,0-.34-.09-.43-.25l-19.65-33.25c-.43-.73-.51-1.61-.23-2.41s.91-1.42,1.71-1.71l15.17-5.43c1.36-.49,2.88,.07,3.61,1.32l19.29,33.33c.07,.12,.09,.28,.04,.41-.05,.14-.15,.25-.29,.3l-19.04,7.63c-.06,.02-.12,.04-.19,.04Zm-18.26-36.67c-.52,.19-.92,.59-1.11,1.11s-.13,1.09,.15,1.56l19.43,32.88,18.11-7.26-19-32.83c-.48-.84-1.5-1.21-2.41-.88l-15.17,5.43h0Zm-.17-.47h0Z" fill="#2f2e41"></path>
    </g>
    <g>
      <path d="M278.09,607.25s-1.73,5.7-9.85,13.95c-3.39,3.44-7.47,6.13-11.9,8.04-1.33,.57-2.51,1.36-2.74,2.37l23.34,1.96,12.16-8.09,8.49-20.96-6.07-6.83-2.43,1.38-6.08,4.7h-3.56l-1.37,3.48Z" fill="#0071f2"></path>
      <path d="M277.07,634.08l-24.08-2.02,.13-.56c.23-1.04,1.25-1.95,3.03-2.72,4.54-1.96,8.49-4.63,11.75-7.93,7.94-8.06,9.71-13.69,9.72-13.74v-.04s1.5-3.79,1.5-3.79h3.73l5.95-4.6,2.84-1.62,6.54,7.37-8.67,21.39-.13,.08-12.31,8.18Zm-22.72-2.91l22.45,1.88,11.89-7.91,8.32-20.53-5.59-6.3-2.08,1.18-6.16,4.77h-3.39l-1.24,3.14c-.14,.44-2.01,6.06-9.96,14.13-3.34,3.4-7.4,6.14-12.06,8.15-1.07,.46-1.81,.96-2.19,1.47Z" fill="#2f2e41"></path>
    </g>
    <g>
      <rect x="344.33" y="58.43" width="293.13" height="573.18" rx="23.26" ry="23.26" fill="#0071f2"></rect>
      <path d="M614.2,632.11h-246.62c-13.1,0-23.76-10.66-23.76-23.76V81.69c0-13.1,10.66-23.76,23.76-23.76h246.62c13.1,0,23.75,10.66,23.75,23.76V608.36c0,13.1-10.66,23.76-23.75,23.76ZM367.59,58.93c-12.55,0-22.76,10.21-22.76,22.76V608.36c0,12.55,10.21,22.76,22.76,22.76h246.62c12.55,0,22.75-10.21,22.75-22.76V81.69c0-12.55-10.21-22.76-22.75-22.76h-246.62Z" fill="#2f2e41"></path>
    </g>
    <g>
      <rect x="350.79" y="65.89" width="280.21" height="556.97" rx="17.85" ry="17.85" fill="#fff"></rect>
      <path d="M613.15,623.36h-244.5c-10.12,0-18.35-8.23-18.35-18.35V83.74c0-10.12,8.23-18.35,18.35-18.35h244.5c10.12,0,18.35,8.23,18.35,18.35V605.01c0,10.12-8.23,18.35-18.35,18.35ZM368.64,66.39c-9.57,0-17.35,7.78-17.35,17.35V605.01c0,9.57,7.78,17.35,17.35,17.35h244.5c9.57,0,17.35-7.78,17.35-17.35V83.74c0-9.57-7.78-17.35-17.35-17.35h-244.5Z" fill="#2f2e41"></path>
    </g>
    <g>
      <path d="M373.22,227.47h235.36c12.38,0,22.43,10.05,22.43,22.43v355.37c0,9.71-7.88,17.6-17.6,17.6h-245.01c-9.71,0-17.6-7.88-17.6-17.6V249.89c0-12.38,10.05-22.43,22.43-22.43Z" fill="#fff"></path>
      <path d="M613.4,623.36h-245.02c-9.98,0-18.1-8.12-18.1-18.1V249.89c0-12.64,10.28-22.93,22.93-22.93h235.36c12.64,0,22.93,10.28,22.93,22.93v355.37c0,9.98-8.12,18.1-18.1,18.1ZM373.22,227.97c-12.09,0-21.93,9.84-21.93,21.93v355.37c0,9.43,7.67,17.1,17.1,17.1h245.02c9.43,0,17.1-7.67,17.1-17.1V249.89c0-12.09-9.84-21.93-21.93-21.93h-235.36Z" fill="#2f2e41"></path>
    </g>
    <g>
      <path d="M332.98,395.41l-.69-5.71-22.76-8.66-40.03,19.14-2.41,5.2-23.4,57.44-12.07,31.67s-6.15,15.49-1.69,25.92c0,0,22.38,59.96,36.03,83.58,.68,1.18,2.03,1.82,3.38,1.6,4.18-.66,13.52-2.63,22.19-7.9v-4.33s22.77,5.24,29.61,14.8h0c1.4-1.37,2.02-65.36,4.1-90.21,0,0-1.32-11.34,0-27.34,.17-2.03,.3-4.06,.4-6.09,.35-7.16,1.55-25.57,5.29-44.26,0,0,7.04-29.37,2.04-44.87Zm-67.16,125.77c-.91-1.99-1.08-4.24-.48-6.34,3.79-13.33,21.87-49.28,21.87-49.28-.72,9.12,.68,26.25,1.31,33.19,.2,2.2,.33,4.41,.39,6.62,.67,23.41,1.49,69.54,1.49,69.54l-24.57-53.73Z" fill="#fff"></path>
      <path d="M321.15,608.67s-.06,0-.09,0c-.13-.02-.25-.09-.32-.2-6.03-8.44-25.04-13.54-28.71-14.46v3.69c0,.17-.09,.34-.24,.43-8.57,5.21-17.7,7.23-22.38,7.97-1.57,.25-3.1-.48-3.89-1.85-13.52-23.38-35.84-83.05-36.07-83.65-4.48-10.48,1.44-25.64,1.7-26.28l12.07-31.66,23.4-57.45,2.42-5.23c.05-.11,.13-.19,.24-.24l40.03-19.14c.12-.06,.27-.06,.39-.02l22.76,8.66c.17,.07,.3,.22,.32,.41l.68,5.66c4.96,15.47-1.75,43.89-2.04,45.09-3.73,18.65-4.93,37.1-5.27,44.16-.1,2.04-.23,4.09-.4,6.1-1.31,15.76-.02,27.13-.01,27.24-1.03,12.41-1.7,34.25-2.29,53.53-.86,28.1-1.22,36.38-1.96,37.1-.09,.09-.22,.14-.35,.14Zm-29.62-15.8s.08,0,.11,.01c.91,.21,21.85,5.11,29.31,14.22,.52-3.68,1.02-19.94,1.5-35.7,.59-19.28,1.26-41.14,2.29-53.48-.01-.01-1.31-11.47,0-27.34,.17-2,.3-4.04,.4-6.07,.34-7.09,1.55-25.6,5.29-44.33,.07-.31,6.95-29.43,2.05-44.62,0-.03-.02-.06-.02-.09l-.65-5.41-22.28-8.47-39.68,18.96-2.33,5.04-23.39,57.42-12.07,31.65c-.06,.16-6.02,15.43-1.7,25.55,.23,.62,22.53,60.22,36,83.52,.58,1.01,1.71,1.55,2.87,1.36,4.56-.72,13.42-2.68,21.77-7.69v-4.05c0-.15,.07-.3,.19-.39,.09-.07,.2-.11,.31-.11Zm-1.14-17.45c-.19,0-.37-.11-.46-.29l-24.57-53.73h0c-.96-2.1-1.14-4.47-.51-6.69,3.76-13.22,21.72-49,21.9-49.36,.11-.21,.35-.32,.58-.26,.23,.06,.38,.28,.36,.52-.71,9.08,.68,26.18,1.31,33.1,.2,2.19,.33,4.43,.4,6.65,.66,23.14,1.48,69.08,1.49,69.55,0,.24-.16,.44-.39,.5-.04,0-.07,.01-.11,.01Zm-24.12-54.44l23.57,51.55c-.18-9.78-.87-47.05-1.45-67.14-.06-2.2-.2-4.42-.39-6.59-.58-6.38-1.8-21.34-1.44-30.84-3.96,7.98-17.55,35.77-20.75,47.01-.56,1.99-.4,4.12,.46,6h0Z" fill="#2f2e41"></path>
    </g>
    <g>
      <rect x="331.77" y="106.09" width="7.53" height="71.63" rx="3.76" ry="3.76" fill="#2f2e41"></rect>
      <path d="M335.53,178.22c-2.35,0-4.26-1.91-4.26-4.26V109.85c0-2.35,1.91-4.26,4.26-4.26s4.26,1.91,4.26,4.26v64.1c0,2.35-1.91,4.26-4.26,4.26Zm0-71.63c-1.8,0-3.26,1.46-3.26,3.26v64.1c0,1.8,1.46,3.26,3.26,3.26s3.26-1.46,3.26-3.26V109.85c0-1.8-1.46-3.26-3.26-3.26Z" fill="#2f2e41"></path>
    </g>
    <g>
      <rect x="330.15" y="106.09" width="7.53" height="71.63" rx="3.76" ry="3.76" fill="#0071f2"></rect>
      <path d="M333.91,178.22c-2.35,0-4.26-1.91-4.26-4.26V109.85c0-2.35,1.91-4.26,4.26-4.26s4.26,1.91,4.26,4.26v64.1c0,2.35-1.91,4.26-4.26,4.26Zm0-71.63c-1.8,0-3.26,1.46-3.26,3.26v64.1c0,1.8,1.46,3.26,3.26,3.26s3.26-1.46,3.26-3.26V109.85c0-1.8-1.46-3.26-3.26-3.26Z" fill="#2f2e41"></path>
    </g>
    <g>
      <rect x="331.77" y="182.88" width="7.53" height="71.63" rx="3.76" ry="3.76" fill="#2f2e41"></rect>
      <path d="M335.53,255.01c-2.35,0-4.26-1.91-4.26-4.26v-64.1c0-2.35,1.91-4.26,4.26-4.26s4.26,1.91,4.26,4.26v64.1c0,2.35-1.91,4.26-4.26,4.26Zm0-71.63c-1.8,0-3.26,1.46-3.26,3.26v64.1c0,1.8,1.46,3.26,3.26,3.26s3.26-1.46,3.26-3.26v-64.1c0-1.8-1.46-3.26-3.26-3.26Z" fill="#2f2e41"></path>
    </g>
    <g>
      <rect x="330.15" y="182.88" width="7.53" height="71.63" rx="3.76" ry="3.76" fill="#0071f2"></rect>
      <path d="M333.91,255.01c-2.35,0-4.26-1.91-4.26-4.26v-64.1c0-2.35,1.91-4.26,4.26-4.26s4.26,1.91,4.26,4.26v64.1c0,2.35-1.91,4.26-4.26,4.26Zm0-71.63c-1.8,0-3.26,1.46-3.26,3.26v64.1c0,1.8,1.46,3.26,3.26,3.26s3.26-1.46,3.26-3.26v-64.1c0-1.8-1.46-3.26-3.26-3.26Z" fill="#2f2e41"></path>
    </g>
    <g>
      <path d="M321.37,410.21s-11.16-5.47-13.9-16.86" fill="#fff"></path>
      <path d="M321.37,410.71c-.07,0-.15-.02-.22-.05-.11-.06-11.41-5.7-14.16-17.19-.06-.27,.1-.54,.37-.6,.27-.07,.54,.1,.6,.37,2.64,11.02,13.52,16.47,13.63,16.52,.25,.12,.35,.42,.23,.67-.09,.18-.26,.28-.45,.28Z" fill="#2f2e41"></path>
    </g>
    <g>
      <line x1="322.97" y1="415.9" x2="319.32" y2="503.83" fill="#fff"></line>
      <path d="M319.32,504.34h-.02c-.28-.01-.49-.25-.48-.52l3.65-87.93c.01-.28,.23-.49,.52-.48,.28,.01,.49,.25,.48,.52l-3.65,87.93c-.01,.27-.23,.48-.5,.48Z" fill="#2f2e41"></path>
    </g>
    <g>
      <path d="M321.14,509.3s.91,61.74-3.87,90.21" fill="#fff"></path>
      <path d="M317.27,600.01s-.06,0-.08,0c-.27-.05-.46-.3-.41-.58,4.72-28.11,3.88-89.5,3.87-90.12,0-.28,.22-.5,.49-.51h0c.27,0,.5,.22,.5,.49,0,.62,.86,62.11-3.88,90.3-.04,.24-.25,.42-.49,.42Z" fill="#2f2e41"></path>
    </g>
    <g>
      <path d="M284.24,595.19l-24.2-60.72c-.16-.41-.34-.82-.56-1.2-.13-.23-.32-.73-.42-1.78s-.01-2.14,.2-3.2c.28-1.41,.42-3.75-1.88-3.27,0,0-5.64,1.88-2.22-6.41" fill="#fff"></path>
      <path d="M284.24,595.68c-.2,0-.39-.12-.46-.31l-24.2-60.72c-.17-.44-.33-.8-.52-1.14-.24-.4-.4-1.07-.48-1.98-.1-1.05-.03-2.17,.2-3.34,.25-1.24,.17-2.16-.2-2.53-.21-.21-.58-.26-1.09-.16-.03,.01-2.1,.68-3.24-.55-1.04-1.12-.9-3.26,.46-6.54,.1-.26,.4-.38,.65-.27,.26,.1,.38,.4,.27,.65-1.53,3.72-1.07,5.03-.65,5.47,.71,.76,2.24,.27,2.25,.27,.91-.19,1.58-.05,2.05,.41,.64,.63,.8,1.79,.47,3.43-.21,1.07-.28,2.1-.19,3.05,.1,1.04,.28,1.44,.35,1.57,.22,.39,.4,.79,.59,1.27l24.2,60.72c.1,.26-.02,.55-.28,.65-.06,.02-.12,.04-.19,.04Z" fill="#2f2e41"></path>
    </g>
    <g>
      <line x1="254.07" y1="516.05" x2="281.13" y2="463.17" fill="#fff"></line>
      <path d="M254.07,516.55c-.08,0-.16-.02-.23-.05-.25-.13-.34-.43-.22-.67l27.07-52.88c.13-.25,.43-.34,.67-.22,.25,.13,.34,.43,.22,.67l-27.07,52.88c-.09,.17-.26,.27-.45,.27Z" fill="#2f2e41"></path>
    </g>
    <g>
      <path d="M291.53,593.36s.73,5.13-2.1,13.89c0,0,10.86,.36,17.7,9.76,0,0,.12-3.36,.83-7.23,.26-1.43,.64-2.84,1.1-4.22s1.16-3.75,1.31-5.51c0,0-6.25-3.42-18.84-6.69Z" fill="#fff"></path>
      <path d="M307.13,617.51c-.16,0-.31-.07-.4-.21-6.61-9.08-17.21-9.55-17.31-9.56-.16,0-.3-.08-.39-.21s-.12-.29-.07-.44c2.75-8.52,2.09-13.62,2.08-13.67-.02-.17,.04-.33,.16-.44,.12-.11,.3-.15,.46-.11,12.51,3.24,18.89,6.7,18.95,6.73,.17,.09,.27,.28,.26,.48-.15,1.76-.81,4.03-1.34,5.63-.48,1.45-.83,2.81-1.08,4.16-.69,3.79-.82,7.13-.82,7.16,0,.21-.15,.4-.35,.46-.05,.01-.1,.02-.15,.02Zm-17.04-10.71c2.37,.25,10.7,1.63,16.62,8.85,.1-1.35,.32-3.57,.75-5.96,.25-1.39,.62-2.79,1.11-4.29,.39-1.19,1.05-3.36,1.26-5.07-1.34-.68-7.29-3.54-17.75-6.31,.1,1.68,.07,6.13-1.99,12.78Z" fill="#2f2e41"></path>
    </g>
    <g>
      <path d="M310.37,600.05s7.82,3.92,10.78,8.12c0,0,1.93,5.57-12.84,0l.54-1.87c.12-.42,.25-.83,.38-1.24,.35-1.05,1.11-3.53,1.15-5.01Z" fill="#fff"></path>
      <path d="M318.2,611.14c-2.29,0-5.65-.83-10.07-2.5-.24-.09-.38-.36-.3-.61l.54-1.87c.12-.42,.25-.84,.39-1.25,.32-.99,1.08-3.45,1.12-4.87,0-.17,.1-.33,.24-.42,.14-.09,.33-.1,.48-.02,.32,.16,7.97,4.03,10.97,8.28,.03,.04,.05,.08,.06,.12,.02,.05,.44,1.33-.52,2.27-.59,.57-1.56,.86-2.9,.86Zm-9.28-3.27c8.64,3.2,10.91,2.26,11.49,1.7,.43-.42,.34-.99,.29-1.17-2.38-3.32-7.97-6.51-9.89-7.54-.19,1.45-.75,3.3-1.1,4.38-.13,.4-.26,.81-.37,1.22l-.41,1.42Z" fill="#2f2e41"></path>
    </g>
    <g>
      <path d="M276.94,603.91l1.15,3.34s1.59-2.74,4.33,0c0,0,2.39,3.83,4.33-2.06l2.36-6.11s-3.98,2.4-12.16,4.84Z" fill="#eaebeb"></path>
      <path d="M284.19,608.97c-1.15,0-1.99-1.14-2.17-1.4-.77-.76-1.48-1.1-2.13-1.03-.86,.11-1.37,.95-1.38,.96l-.55,.93-1.67-4.85,.5-.15c8.02-2.39,12.01-4.76,12.05-4.78l1.25-.75-2.88,7.47c-.75,2.27-1.67,3.46-2.8,3.59-.07,0-.14,.01-.21,.01Zm-4.11-3.44c.88,0,1.78,.46,2.69,1.36l.07,.09c.19,.3,.83,1.05,1.45,.98,.4-.05,1.18-.5,1.98-2.94l1.88-4.88c-1.69,.86-5.18,2.44-10.57,4.08l.7,2.03c.35-.31,.85-.63,1.48-.71,.11-.01,.21-.02,.32-.02Z" fill="#2f2e41"></path>
    </g>
    <g>
      <path d="M253.6,631.61s-.43,2.41,.47,3.89l12.52,.58,2.05-4.47h-15.04Z" fill="#fff"></path>
      <path d="M266.58,636.58s-.02,0-.02,0l-12.52-.58c-.17,0-.32-.1-.4-.24-.99-1.62-.55-4.14-.53-4.24,.04-.24,.25-.41,.49-.41h15.04c.17,0,.33,.09,.42,.23,.09,.14,.1,.32,.03,.48l-2.05,4.47c-.08,.18-.26,.29-.45,.29Zm-12.21-1.56l11.9,.55,1.58-3.46h-13.82c-.07,.66-.12,1.96,.33,2.91Z" fill="#2f2e41"></path>
    </g>
    <path d="M290.39,592.15c-.28,0-.5-.22-.5-.5v-16.74c0-.28,.22-.5,.5-.5s.5,.22,.5,.5v16.74c0,.28-.22,.5-.5,.5Z" fill="#2f2e41"></path>
    <g>
      <path d="M403.42,45.16h30.87c2.45,0,4.44,1.99,4.44,4.44v8.83h-39.75v-8.83c0-2.45,1.99-4.44,4.44-4.44Z" fill="#fff"></path>
      <path d="M438.73,58.93h-39.75c-.28,0-.5-.22-.5-.5v-8.83c0-2.72,2.22-4.94,4.94-4.94h30.87c2.72,0,4.94,2.22,4.94,4.94v8.83c0,.28-.22,.5-.5,.5Zm-39.25-1h38.75v-8.33c0-2.17-1.77-3.94-3.94-3.94h-30.87c-2.17,0-3.94,1.77-3.94,3.94v8.33Z" fill="#2f2e41"></path>
    </g>
    <g>
      <path d="M250.63,309.89l-18.45-31.55c-.27-.46-.06-1.05,.44-1.23l13.71-5.06c.38-.14,.81,0,1.03,.36l18.64,30.98-15.37,6.5Z" fill="#eaebeb"></path>
      <path d="M250.42,310.53l-18.67-31.93c-.2-.35-.24-.76-.11-1.14,.14-.38,.43-.67,.8-.81l13.71-5.06c.61-.23,1.29,.02,1.63,.57l18.94,31.47-16.3,6.9Zm-3.79-38.03s-.08,0-.12,.02l-13.71,5.06c-.13,.05-.19,.15-.21,.21-.02,.06-.04,.17,.03,.3l18.23,31.17,14.43-6.11-18.34-30.49c-.07-.11-.18-.17-.3-.17Z" fill="#2f2e41"></path>
    </g>
    <g>
      <circle cx="236.72" cy="278.99" r="1.87" fill="#fff"></circle>
      <path d="M236.72,281.36c-1.31,0-2.37-1.06-2.37-2.37s1.06-2.37,2.37-2.37,2.37,1.06,2.37,2.37-1.06,2.37-2.37,2.37Zm0-3.75c-.76,0-1.37,.62-1.37,1.37s.62,1.37,1.37,1.37,1.37-.62,1.37-1.37-.62-1.37-1.37-1.37Z" fill="#2f2e41"></path>
    </g>
    <g>
      <circle cx="239.26" cy="283.14" r="1.32" fill="#fff"></circle>
      <path d="M239.26,284.96c-1.01,0-1.82-.82-1.82-1.82s.82-1.82,1.82-1.82,1.82,.82,1.82,1.82-.82,1.82-1.82,1.82Zm0-2.65c-.45,0-.82,.37-.82,.82s.37,.82,.82,.82,.82-.37,.82-.82-.37-.82-.82-.82Z" fill="#2f2e41"></path>
    </g>
    <g>
      <path d="M284.28,280.86s-.44,11.07,1.63,15.21l9.5-8.16s.51-.39,.51-1.17v-4.3s-5.62,2.32-11.64-1.58Z" fill="#fff"></path>
      <path d="M285.91,296.56s-.07,0-.1,0c-.15-.03-.28-.13-.35-.27-2.1-4.2-1.7-14.99-1.68-15.45,0-.18,.11-.34,.27-.42,.16-.08,.35-.07,.5,.02,5.71,3.7,11.12,1.56,11.18,1.53,.15-.06,.33-.05,.47,.05s.22,.25,.22,.42v4.3c0,1-.64,1.51-.71,1.57l-9.48,8.14c-.09,.08-.21,.12-.33,.12Zm-1.15-14.83c-.05,2.51-.06,9.9,1.34,13.51l8.99-7.72s.34-.28,.34-.79v-3.6c-1.64,.48-5.95,1.3-10.66-1.4Z" fill="#2f2e41"></path>
    </g>
    <g>
      <path d="M290.41,292.2l-12.83,9.96s-5.16,2.58-4.82,10.32c0,0-.52,9.46-2.06,14.45,0,0-2.24,6.54-1.2,12.39l-.65-.85c-1.15-1.49-2.11-3.13-2.93-4.83-1.05-2.16-3.59-5.16-9.33-3.29-3.96,1.29-7.18,4.24-8.96,8.01-1.65,3.51-2.54,8.19,1.22,12.14l2.15,2.15c.83,.83,1.72,1.6,2.6,2.38,.74,.65,1.85,2.29,1.62,6.14,0,0,.04,11.53,13.09,15.14,0,0-.19,7.23-4.66,18.92,0,0-2.58,7.91,3.44,10.15,0,0,11.18-4.3,30.11-14.11,0,0,23.23-11.87,35.79,4.13,0,0,4.47-1.72,2.06-11.35l-5.16-18.75s9.29-6.19,11.35-31.66c0,0,1.95-34.79-4.96-37.09l-22.99-12.53-22.87,8.18Z" fill="#0071f2"></path>
      <path d="M267.09,405.92l-.18-.07c-6.4-2.38-3.77-10.69-3.74-10.77,3.82-10,4.5-16.76,4.62-18.4-12.89-3.79-13.07-15.39-13.07-15.51,.22-3.71-.81-5.2-1.45-5.77l-.25-.22c-.79-.7-1.61-1.42-2.38-2.19l-2.15-2.15c-3.2-3.36-3.65-7.75-1.32-12.71,1.85-3.94,5.22-6.95,9.25-8.27,6.17-2.01,8.87,1.36,9.93,3.55,.75,1.56,1.55,2.91,2.42,4.12-.38-5.33,1.37-10.54,1.45-10.78,1.51-4.86,2.03-14.22,2.04-14.32-.35-7.92,4.87-10.63,5.09-10.74l12.89-9.99,23.08-8.25,.2,.11,22.99,12.53c6.99,2.32,5.42,33.96,5.22,37.56-1.88,23.18-9.63,30.52-11.28,31.82l5.07,18.42c2.49,9.96-2.17,11.88-2.37,11.96l-.34,.13-.23-.29c-12.16-15.5-34.93-4.11-35.16-3.99-18.73,9.71-30.04,14.09-30.16,14.13l-.18,.07Zm-7.15-75.66c-.93,0-1.99,.17-3.21,.57-3.77,1.23-6.92,4.05-8.66,7.74-2.17,4.62-1.79,8.52,1.13,11.58l2.14,2.14c.74,.74,1.55,1.45,2.33,2.14l.25,.22c.95,.83,2.02,2.65,1.79,6.54,0,.42,.21,11.16,12.73,14.63l.38,.1v.39c-.02,.3-.25,7.45-4.71,19.09-.09,.28-2.3,7.31,2.97,9.44,1.51-.6,12.48-5,29.88-14.02,.24-.12,23.41-11.71,36.14,3.93,.89-.62,3.33-3.08,1.46-10.59l-5.25-19.09,.3-.2c.09-.06,9.12-6.43,11.13-31.28,.53-9.56,.75-34.79-4.62-36.58l-22.88-12.46-22.58,8.08-12.77,9.91c-.28,.15-4.95,2.61-4.62,9.91-.02,.44-.54,9.63-2.09,14.62-.03,.08-2.19,6.5-1.19,12.15l.35,2-1.89-2.45c-1.09-1.42-2.07-3.02-2.99-4.92-.86-1.77-2.48-3.6-5.52-3.6Z" fill="#2f2e41"></path>
    </g>
    <path d="M270.53,370.1s-.1,0-.15-.02c-.26-.08-.41-.36-.33-.63,4.87-15.63-.96-29.8-1.02-29.94-.11-.25,.01-.55,.27-.66,.25-.11,.55,.01,.66,.27,.06,.14,6.03,14.63,1.05,30.62-.07,.21-.26,.35-.48,.35Z" fill="#2f2e41"></path>
    <path d="M325.84,366.15c-14.4,0-26.68-12.61-30.34-16.77-.55-.62-1.03-1.3-1.5-1.96-2.17-3.05-6.71-2.95-6.77-2.95-9.16,.35-11.72-4.71-11.82-4.93-.12-.25-.02-.55,.23-.67,.25-.12,.55-.02,.67,.23h0c.1,.19,2.39,4.71,10.89,4.36,.22,0,5.14-.12,7.57,3.3,.52,.73,.97,1.36,1.48,1.95,3.92,4.46,17.94,18.81,33.54,16.09,.26-.06,.53,.13,.58,.41,.05,.27-.13,.53-.41,.58-1.39,.24-2.77,.36-4.13,.36Z" fill="#2f2e41"></path>
    <path d="M271,396.77c-.16,0-.32-.08-.42-.22-.15-.23-.09-.54,.14-.69,.15-.1,14.9-10.02,20.68-14.1,.68-.44,16.41-10.44,25.86-3.96,.06,.05,3.43,2.7,7.71,3.36,.27,.04,.46,.3,.42,.57s-.29,.46-.57,.42c-4.55-.7-8.01-3.43-8.15-3.54-8.87-6.08-24.55,3.89-24.71,3.99-5.77,4.07-20.53,14-20.68,14.1-.09,.06-.18,.08-.28,.08Z" fill="#2f2e41"></path>
    <path d="M332.29,386.7c-.2,0-.39-.12-.46-.31-.33-.82-2.14-2.01-3.21-2.58-.24-.13-.34-.43-.21-.68s.43-.34,.67-.21c.32,.17,3.1,1.67,3.67,3.09,.1,.26-.02,.55-.28,.65-.06,.02-.12,.04-.19,.04Z" fill="#2f2e41"></path>
    <path d="M329.88,337.18c-.1,0-.19-.03-.28-.08-7.86-5.21-14.67-8.21-19.12-10.01-.58-.24-1.09-.5-1.58-.76-1.47-.78-3-1.58-7.21-1.93-.61-.05-1.44-.12-2.21-.48-1.01-.47-1.96-1.2-2.83-2.15-3.21-3.53-7.28-4.7-7.32-4.72-.27-.08-.42-.35-.35-.62,.08-.27,.35-.42,.62-.35,.18,.05,4.4,1.27,7.79,5.01,.78,.86,1.63,1.51,2.51,1.92,.61,.29,1.31,.34,1.87,.39,4.41,.37,6.1,1.25,7.59,2.04,.49,.26,.95,.5,1.48,.72,4.48,1.82,11.36,4.84,19.29,10.1,.23,.15,.29,.46,.14,.69-.1,.15-.26,.22-.42,.22Z" fill="#2f2e41"></path>
    <path d="M317.21,316.34c-.08,0-.16-.02-.23-.06-.24-.13-.34-.43-.21-.68,6.3-11.92,17.26-20.36,17.37-20.45,.22-.17,.53-.13,.7,.09s.12,.53-.09,.7c-.11,.08-10.9,8.4-17.09,20.12-.09,.17-.26,.27-.44,.27Z" fill="#2f2e41"></path>
    <path d="M298.16,304.84c-8.15,0-11.35-9.94-11.38-10.05-.08-.26,.07-.54,.33-.63,.27-.08,.54,.07,.63,.33,.14,.45,3.54,10.97,12.43,9.14,.05,0,5.04-1.14,8.41-7.8,.16-.36,4.21-9.53,8.56-10.17,.27-.03,.53,.15,.57,.42,.04,.27-.15,.53-.42,.57-3.16,.46-6.7,7.09-7.8,9.61-3.62,7.13-8.89,8.3-9.12,8.35-.77,.16-1.5,.23-2.2,.23Z" fill="#2f2e41"></path>
    <path d="M316.46,329.64c-.25,0-.46-.18-.49-.43-.44-3.21,.73-6.34,.78-6.47,.1-.26,.39-.39,.64-.29,.26,.1,.39,.39,.29,.64-.01,.03-1.13,3.03-.72,5.98,.04,.27-.15,.53-.43,.56-.02,0-.05,0-.07,0Z" fill="#2f2e41"></path>
    <g>
      <path d="M285.43,334.66l-17.56-17.22s-3.3-3.18-6.13-4.25c0,0-16.67-7.43-15.53-11.44,0,0,1.33-2.08,10.45,3.63,.25,.16,.58,.05,.7-.22h0c.08-.2,.02-.43-.16-.56-1.95-1.44-12.78-9.65-10.99-12.87,0,0,1.03-1.18,4.56,1.53,0,0-5.59-5.31-4.56-7.66,0,0,1.14-2.18,7.63,2.86l8.84,6.22s-9.67-8.96-7.66-11.44c0,0,5.66-2.24,15.8,13.8,0,0,3.1,6,6.92,11.25,.73,1,1.6,1.9,2.6,2.65l7.46,5.63s6.72,10.05-2.36,18.09Z" fill="#fff"></path>
      <path d="M285.43,335.16c-.13,0-.25-.05-.35-.14l-17.56-17.22s-3.26-3.12-5.96-4.13c-1.78-.79-17.06-7.74-15.83-12.04,.01-.05,.03-.09,.06-.13,.27-.41,2.06-2.21,11.14,3.48-4-2.89-13.04-10.09-11.15-13.47,.02-.03,.04-.06,.06-.08,.15-.17,.78-.74,2.31-.23-1.51-1.82-3.07-4.23-2.39-5.77,.06-.12,.32-.55,1.06-.71,1.55-.33,4.02,.8,7.34,3.38l4.32,3.04c-2.58-2.9-5.18-6.51-3.83-8.17,.05-.07,.12-.12,.21-.15,.24-.1,6.16-2.21,16.41,13.99,.05,.1,3.15,6.07,6.91,11.22,.71,.97,1.55,1.83,2.49,2.54l7.46,5.63s.08,.08,.12,.12c.07,.1,6.86,10.51-2.45,18.74-.09,.08-.21,.12-.33,.12Zm-38.77-33.13c-.4,2.66,9.09,7.95,15.28,10.71,2.87,1.07,6.14,4.21,6.28,4.34l17.23,16.89c7.86-7.33,2.58-16.12,1.98-17.06l-7.39-5.58c-1.02-.77-1.93-1.7-2.7-2.75-3.81-5.22-6.93-11.25-6.96-11.32-8.85-13.98-14.16-13.75-15.05-13.59-.84,1.63,3.92,7.14,7.7,10.63,.19,.18,.21,.48,.05,.68-.16,.21-.46,.25-.68,.09l-8.84-6.22c-3.93-3.05-5.72-3.33-6.44-3.22-.36,.05-.46,.2-.47,.21-.62,1.43,2.42,5.09,4.48,7.04,.19,.18,.21,.48,.04,.69s-.47,.23-.68,.07c-2.36-1.81-3.54-1.79-3.86-1.61-.95,2.12,4.94,7.75,10.89,12.15,.36,.27,.49,.74,.33,1.15-.11,.27-.33,.47-.6,.56-.28,.09-.58,.05-.82-.1-7.37-4.62-9.38-3.98-9.73-3.79Z" fill="#2f2e41"></path>
    </g>
    <path d="M275.49,324.91l9.94,9.75s-6.76,7.07-9.57,2.71c0,0-2.3-4.04-.37-12.46Z" fill="#2f2e41"></path>
    <path d="M260.16,331.25c2.47,.12,4.47,1.98,4.93,4.4,.39,2.1,.28,5.14-1.96,8.65-1.5,2.36-3.65,4.27-6.25,5.31-2.89,1.15-6.93,.02-8.35-3.98,0,0-2.83-7.66,6.13-12.97,0,0,2.58-1.55,5.5-1.41Z" fill="#2f2e41"></path>
    <g>
      <path d="M263.55,338.44c-.45-2.18-1.53-8-1.48-13.19,0-.99-.04-1.97-.12-2.95-.24-2.9-.83-7.99-2.13-9.99,0,0-14.29-6.18-13.62-10.54,0,0-1.21-1.06-3.1,0v-3.34c0-.35,.15-.68,.42-.91l1.41-1.19c.76-.64,1.02-1.69,.66-2.61h0c-.51-1.3-2.04-1.85-3.26-1.18l-1.44,.79c-1.26,.69-2.04,2.01-2.04,3.44v8.92s-2.36,2.31,.71,4.55c0,0-1.65,4.13,3.3,4.95,0,0-2.24,2.24,6.01,5.9,0,0,2.2,4.72,1.98,16.74,0,0-1.35,8.31,3.48,9.71,1.01,.29,2.08,.19,3.05-.22,1.62-.68,4.26-2.46,6.01-7.07,.22-.58,.27-1.22,.14-1.82Z" fill="#fff"></path>
      <path d="M255.54,348.21c-.45,0-.9-.06-1.33-.18-5.2-1.5-3.9-9.91-3.84-10.27,.18-10.46-1.51-15.36-1.88-16.29-3.93-1.76-6.07-3.47-6.37-5.09-.06-.32-.04-.59,.01-.82-1.38-.34-2.34-1-2.88-1.95-.68-1.21-.45-2.55-.28-3.18-.92-.75-1.42-1.59-1.48-2.51-.08-1.15,.56-2.06,.86-2.42v-8.73c0-1.62,.88-3.1,2.29-3.88l1.44-.79c.71-.39,1.55-.46,2.31-.18,.76,.27,1.37,.86,1.66,1.62,.44,1.12,.12,2.4-.8,3.18l-1.41,1.19c-.16,.13-.24,.32-.24,.53v2.56c1.75-.61,2.88,.35,2.93,.4,.13,.11,.19,.28,.17,.45-.5,3.26,9.45,8.33,13.32,10.01,.09,.04,.17,.1,.22,.19,1.29,2,1.91,6.66,2.2,10.22,.09,1.14,.13,2.09,.12,3-.05,5.12,1.01,10.86,1.47,13.09h0c.15,.71,.09,1.44-.16,2.1-1.85,4.88-4.73,6.71-6.29,7.36-.67,.28-1.37,.42-2.05,.42Zm-12.09-55.47c-.3,0-.6,.08-.87,.22l-1.44,.79c-1.1,.6-1.78,1.76-1.78,3.01v8.92c0,.13-.05,.26-.15,.36,0,0-.79,.8-.71,1.8,.05,.7,.51,1.37,1.36,1.99,.18,.13,.25,.38,.17,.59,0,.01-.57,1.49,.11,2.69,.46,.81,1.41,1.35,2.81,1.58,.18,.03,.34,.16,.39,.34,.06,.18,0,.37-.12,.51-.01,.01-.2,.24-.1,.68,.16,.73,1.15,2.27,5.97,4.41,.11,.05,.2,.14,.25,.25,.09,.2,2.25,4.96,2.03,16.96-.02,.15-1.23,7.96,3.12,9.22,.86,.25,1.82,.18,2.72-.2,1.41-.59,4.02-2.25,5.74-6.79,.18-.49,.23-1.02,.12-1.54-.46-2.26-1.54-8.08-1.49-13.3,0-.87-.03-1.8-.12-2.91-.39-4.67-1.1-8.16-1.97-9.64-2-.87-13.86-6.25-13.79-10.68-.36-.19-1.18-.47-2.33,.18-.15,.09-.34,.09-.5,0-.15-.09-.25-.25-.25-.43v-3.34c0-.5,.22-.97,.6-1.29l1.41-1.19c.59-.5,.8-1.32,.52-2.05-.19-.48-.58-.86-1.07-1.04-.2-.07-.41-.11-.61-.11Z" fill="#2f2e41"></path>
    </g>
    <path d="M238.86,306.19c-.11,0-.23-.04-.32-.12-.21-.18-.24-.49-.06-.71,2.15-2.58,4.27-3.98,4.36-4.04,.23-.15,.54-.08,.69,.15,.15,.23,.09,.54-.14,.69-.02,.01-2.09,1.38-4.13,3.84-.1,.12-.24,.18-.38,.18Z" fill="#2f2e41"></path>
    <path d="M240.98,310.39c-.14,0-.28-.06-.38-.17-.18-.21-.16-.52,.05-.71,5.34-4.63,7.35-4.36,7.56-4.31,.27,.06,.44,.33,.38,.6-.06,.26-.31,.44-.57,.38-.06,0-1.9-.08-6.71,4.09-.09,.08-.21,.12-.33,.12Z" fill="#2f2e41"></path>
    <path d="M244.54,314.64c-.12,0-.24-.04-.33-.12-.21-.18-.23-.5-.04-.71,5.34-6.04,8.94-5.43,9.08-5.4,.27,.05,.45,.31,.4,.59-.05,.27-.31,.44-.58,.4-.06-.01-3.26-.45-8.15,5.08-.1,.11-.24,.17-.38,.17Z" fill="#2f2e41"></path>
    <path d="M250.81,318.06s-.05,0-.08,0c-.27-.04-.46-.3-.41-.58,.45-2.71,2.53-3.69,3.57-3.83,3.27-.7,3.23-2.07,3.23-2.09-.02-.27,.18-.51,.45-.54,.25-.04,.51,.16,.54,.42,.01,.09,.25,2.27-4.05,3.18-.13,.02-2.32,.37-2.76,3.01-.04,.24-.25,.42-.49,.42Z" fill="#2f2e41"></path>
    <path d="M260.32,310.39h0c-.27,0-.5-.22-.5-.5,0-.05,.01-1.15,.94-2.3,.46-.57,1.12-1.01,1.9-1.27,1.07-.36,1.53-1.09,1.35-2.19-.06-.4,.13-.8,.48-1,.74-.41,1.89-1.41,1.35-3.5h0s-.4-1.01,.84-1.97c.35-.27,.61-.6,.75-.94,.34-.79,.16-1.56-.53-2.29-.19-.2-.18-.52,.02-.71,.2-.19,.52-.18,.71,.02,.97,1.01,1.22,2.21,.73,3.37-.21,.5-.58,.96-1.06,1.34-.62,.49-.51,.87-.51,.88,.78,2.98-1.19,4.33-1.81,4.68,.27,1.54-.47,2.74-2.01,3.26-.61,.2-1.1,.53-1.44,.95-.7,.86-.72,1.64-.72,1.67,0,.27-.23,.49-.5,.49Z" fill="#2f2e41"></path>
    <path d="M258.31,299.66c-.11,0-.22-.03-.31-.11l-8.19-6.37c-.22-.17-.26-.48-.09-.7,.17-.22,.48-.26,.7-.09l8.19,6.37c.22,.17,.26,.48,.09,.7-.1,.13-.25,.19-.39,.19Z" fill="#2f2e41"></path>
    <g>
      <path d="M295.92,282.44v4.3c0,.44-.19,.87-.51,1.17l-5,4.3s3.16,11.78,11.92,6.79c0,0,2-1.09,4.62-6.2,0,0,3.28-7.18,6.33-8.76l-1.09-10.22-4.99-9.79-7.06,2.74-4.22,15.69Z" fill="#fff"></path>
      <path d="M298.24,300.72c-.83,0-1.64-.16-2.41-.48-4.21-1.76-5.84-7.66-5.9-7.91-.05-.19,.01-.38,.16-.51l5-4.3c.21-.19,.34-.49,.34-.79v-4.3s0-.09,.02-.13l4.22-15.69c.04-.15,.15-.28,.3-.34l7.06-2.74c.23-.1,.51,0,.63,.24l4.99,9.79c.03,.05,.04,.11,.05,.17l1.09,10.22c.02,.21-.08,.4-.27,.5-2.85,1.48-6.07,8.45-6.1,8.52-2.67,5.21-4.75,6.39-4.84,6.43-1.51,.86-2.96,1.29-4.33,1.29Zm-7.26-8.35c.38,1.19,1.98,5.59,5.24,6.95,1.73,.72,3.71,.47,5.87-.76,.02-.01,1.94-1.14,4.42-6,.12-.27,3.18-6.89,6.24-8.8l-1.05-9.8-4.74-9.31-6.4,2.48-4.14,15.38v4.23c0,.58-.25,1.14-.67,1.54l-4.77,4.1Z" fill="#2f2e41"></path>
    </g>
    <path d="M295.92,286.73s9.6-2.6,8.61-12.96c0,0-1.52,6.11-8.61,8.67v4.3Z" fill="#2f2e41"></path>
    <g>
      <rect x="276.19" y="246.51" width="26.91" height="37.04" rx="13.46" ry="13.46" transform="translate(-83.42 142.72) rotate(-24.31)" fill="#fff"></rect>
      <path d="M291.75,283.61c-5.32,0-10.41-3.06-12.74-8.21l-4.17-9.23c-1.53-3.4-1.65-7.19-.34-10.68s3.91-6.25,7.31-7.79c3.4-1.53,7.19-1.65,10.68-.34s6.25,3.91,7.79,7.31l4.17,9.23c1.53,3.4,1.65,7.19,.34,10.68s-3.91,6.25-7.31,7.79h0c-1.86,.84-3.81,1.24-5.72,1.24Zm-4.2-36.15c-1.81,0-3.62,.39-5.33,1.16-3.15,1.42-5.56,3.99-6.79,7.23s-1.11,6.76,.31,9.91l4.17,9.23c2.94,6.51,10.63,9.42,17.14,6.47,3.15-1.42,5.56-3.99,6.79-7.23s1.11-6.76-.31-9.91l-4.17-9.23c-1.42-3.15-3.99-5.56-7.23-6.79-1.49-.56-3.04-.84-4.58-.84Zm9.71,34.46h0Z" fill="#2f2e41"></path>
    </g>
    <g>
      <path d="M275.65,266.75s-8.84-11.31-.81-17.4c0,0,4.01-11.44,18.25-9.49,0,0,1.58-10.22,11.31-8.11,1.93,.42,3.71,1.39,5.02,2.87,2.13,2.41,3.88,6.79-1.97,13.03,0,0,3.41,3.53,3.04,9.12,0,0,11.44,6.33,11.07,11.92,0,0-.12,3.65,2.68,6.08,0,0,12.29,6.45,12.04,21.78l-22.99-12.53s-8.74-5.11-7.35-17.64l-6.06-7.59s-5.93-5.55-12.37-3.36c0,0-9.39,1.58-11.57-1.76,0,0-1.77,7.24-.27,13.08Z" fill="#fff"></path>
      <path d="M336.27,297.05c-.08,0-.17-.02-.24-.06l-22.99-12.53c-.1-.06-8.92-5.37-7.63-17.93l-5.94-7.43s-5.74-5.27-11.82-3.2c-.44,.08-8.34,1.38-11.44-1.18-.41,2.12-1.21,7.46-.07,11.9,.06,.23-.05,.47-.26,.57-.21,.1-.47,.05-.61-.14-.2-.26-4.97-6.43-4.21-12.26,.3-2.31,1.44-4.25,3.37-5.75,.54-1.34,5.06-11.29,18.26-9.73,.29-1.29,1.33-4.85,4.3-6.89,2.04-1.4,4.57-1.79,7.51-1.15,2.08,.45,3.96,1.53,5.29,3.03,1.94,2.19,4.26,6.81-1.67,13.37,.85,1.03,3.08,4.21,2.89,8.83,1.8,1.04,11.41,6.82,11.05,12.24,0,.02-.07,3.4,2.46,5.64,.92,.51,12.49,7.27,12.26,22.2,0,.17-.1,.34-.25,.42-.08,.05-.17,.07-.25,.07Zm-45.61-42.65c5.18,0,9.34,3.83,9.55,4.03l6.11,7.64c.08,.1,.12,.24,.11,.37-1.34,12.04,7.02,17.1,7.11,17.15l22.24,12.12c-.21-14.24-11.66-20.43-11.78-20.49-.03-.02-.07-.04-.1-.07-2.94-2.56-2.85-6.32-2.85-6.48,.34-5.23-10.7-11.41-10.81-11.47-.17-.09-.27-.28-.26-.47,.34-5.29-2.87-8.71-2.9-8.75-.18-.19-.19-.5,0-.69,5.49-5.85,4.1-9.94,1.96-12.35-1.19-1.34-2.88-2.31-4.75-2.71-2.66-.58-4.93-.24-6.73,1-3.24,2.22-3.97,6.66-3.97,6.7-.04,.27-.29,.46-.56,.42-13.64-1.85-17.55,8.71-17.71,9.16-.03,.09-.09,.17-.17,.23-1.79,1.35-2.83,3.09-3.1,5.17-.46,3.51,1.34,7.29,2.68,9.53-.64-5.26,.65-10.64,.71-10.9,.05-.19,.21-.34,.4-.38,.2-.04,.39,.05,.5,.22,1.64,2.52,8.55,1.97,11.07,1.54,1.11-.38,2.2-.54,3.25-.54Z" fill="#2f2e41"></path>
    </g>
    <g>
      <ellipse cx="304.34" cy="260.63" rx="4.69" ry="6.12" fill="#fff"></ellipse>
      <path d="M304.34,267.25c-2.86,0-5.19-2.97-5.19-6.62s2.33-6.62,5.19-6.62,5.19,2.97,5.19,6.62-2.33,6.62-5.19,6.62Zm0-12.24c-2.31,0-4.19,2.52-4.19,5.62s1.88,5.62,4.19,5.62,4.19-2.52,4.19-5.62-1.88-5.62-4.19-5.62Z" fill="#2f2e41"></path>
    </g>
    <g>
      <path d="M309.69,631.61l-22.27,3.84c-10.51,1.47-16.45,.05-18.87-.82-1.02-.36-2.09-.55-3.17-.55h-5.97c-.64-2.73,14.32-8.67,14.32-8.67,7.21-3.56,14.24-14.05,14.24-14.05,1.65-2.28,4.38-1.64,4.38-1.64l8.85,6.2,4.66,4.29h2.45l1.38,11.4Z" fill="#0071f2"></path>
      <path d="M278.85,636.59c-5.3,0-8.67-.84-10.47-1.49-.98-.35-1.99-.53-3-.53h-6.36l-.09-.39c-.68-2.93,11.02-7.82,14.63-9.25,6.97-3.44,13.94-13.76,14.01-13.86,1.83-2.54,4.78-1.88,4.91-1.85l.17,.08,8.85,6.2,4.56,4.2h2.7l1.49,12.31-22.73,3.92c-3.32,.46-6.2,.65-8.65,.65Zm-18.89-3.01h5.42c1.13,0,2.25,.2,3.34,.58,2.55,.91,8.37,2.23,18.63,.79l21.78-3.75-1.27-10.49h-2.2l-4.8-4.42-8.71-6.1c-.45-.08-2.48-.32-3.77,1.46-.28,.42-7.18,10.63-14.42,14.2-6.48,2.57-13.22,6.06-14,7.72Z" fill="#2f2e41"></path>
    </g>
    <g>
      <path d="M309.69,631.61v3.15c0,1.64-1.33,2.97-2.97,2.97h-45.99c-.73,0-1.32-.59-1.32-1.32v-2.33h5.97c1.08,0,2.15,.19,3.17,.55,2.42,.87,8.36,2.29,18.87,.82l22.27-3.84Z" fill="#fff"></path>
      <path d="M306.72,638.23h-45.99c-1,0-1.82-.82-1.82-1.82v-2.33c0-.28,.22-.5,.5-.5h5.97c1.13,0,2.25,.2,3.34,.58,2.55,.91,8.37,2.23,18.63,.79l22.25-3.83c.14-.02,.29,.02,.41,.11,.11,.1,.18,.24,.18,.38v3.15c0,1.91-1.56,3.47-3.47,3.47Zm-46.81-3.65v1.83c0,.45,.37,.82,.82,.82h45.99c1.36,0,2.47-1.11,2.47-2.47v-2.56l-21.68,3.73c-10.49,1.47-16.48,.1-19.12-.84-.98-.35-1.99-.53-3-.53h-5.47Z" fill="#2f2e41"></path>
    </g>
    <g>
      <path d="M289.43,607.25l-1.46,4.11s6.39-1.73,6.48,4.38c0,0-1.42,8.21,5.45,6.57,0,0,4.04-.64,7.32-1.55l-.09-3.74s-5.2-8.58-17.7-9.76Z" fill="#eaebeb"></path>
      <path d="M298.22,623.03c-1.16,0-2.12-.34-2.85-1.03-2.14-2-1.45-6.17-1.42-6.34-.03-1.46-.49-2.59-1.38-3.26-1.7-1.28-4.45-.56-4.48-.55l-.92,.25,1.91-5.37,.39,.04c12.61,1.2,17.86,9.64,18.08,10l.07,.11,.11,4.26-.38,.1c-3.27,.91-7.34,1.56-7.38,1.56-.63,.15-1.21,.23-1.76,.23Zm-8.34-12.4c1.04,0,2.29,.2,3.3,.96,1.15,.86,1.74,2.26,1.77,4.14-.01,.13-.64,3.91,1.11,5.54,.81,.76,2.06,.95,3.73,.55,.08-.01,3.78-.6,6.93-1.44l-.08-3.21c-.64-.97-5.8-8.17-16.87-9.38l-1.04,2.92c.32-.04,.71-.08,1.14-.08Z" fill="#2f2e41"></path>
    </g>
    <g>
      <path d="M377.27,175.26v6.75h4.22v.88h-5.16v-7.63h.94Z" fill="#2f2e41"></path>
      <path d="M385.15,183c-.5,0-.97-.12-1.41-.36-.44-.24-.79-.59-1.06-1.05-.27-.46-.4-1-.4-1.62s.13-1.17,.4-1.62c.27-.46,.62-.81,1.06-1.06,.44-.25,.91-.38,1.41-.38s.97,.12,1.4,.38c.43,.25,.78,.6,1.05,1.06,.27,.46,.4,1,.4,1.62s-.13,1.17-.4,1.62c-.27,.46-.62,.81-1.05,1.05-.43,.24-.9,.36-1.4,.36Zm0-.88c.33,0,.64-.08,.93-.25,.29-.16,.53-.41,.71-.73s.28-.72,.28-1.18-.09-.85-.28-1.18-.42-.57-.71-.75c-.29-.17-.6-.26-.93-.26s-.64,.08-.93,.25-.53,.42-.72,.74-.28,.72-.28,1.19,.09,.86,.28,1.18,.42,.57,.72,.73c.3,.16,.61,.25,.94,.25Z" fill="#2f2e41"></path>
      <path d="M389.2,177.02h.94v5.87h-.94v-5.87Zm2.82,.88c-.4,0-.73,.1-1,.3-.27,.2-.48,.44-.63,.73-.15,.29-.25,.56-.3,.83v-.68c-.01-.07,0-.19,.04-.35s.09-.35,.18-.56,.2-.41,.35-.6c.14-.19,.33-.35,.56-.47,.23-.12,.5-.19,.82-.19v1Z" fill="#2f2e41"></path>
      <path d="M397.23,180.99h.88c-.06,.38-.2,.73-.42,1.03-.22,.3-.5,.54-.84,.72-.35,.18-.75,.26-1.2,.26-.55,0-1.04-.13-1.48-.39-.44-.26-.78-.62-1.04-1.08-.25-.46-.38-.98-.38-1.57s.12-1.11,.37-1.57c.25-.46,.58-.83,1.01-1.09,.43-.27,.92-.4,1.46-.4,.57,0,1.05,.13,1.45,.38,.39,.25,.69,.63,.88,1.11,.19,.49,.27,1.09,.23,1.8h-4.46c.04,.38,.14,.72,.32,1.01s.4,.51,.68,.67,.6,.24,.96,.24c.4,0,.74-.1,1.01-.31,.28-.21,.47-.48,.57-.82Zm-1.61-3.21c-.49,0-.89,.14-1.22,.42-.33,.28-.55,.67-.66,1.15h3.44c-.03-.52-.2-.91-.5-1.17-.3-.27-.65-.4-1.06-.4Z" fill="#2f2e41"></path>
      <path d="M399.35,177.02h.94v5.87h-.94v-5.87Zm2.96-.12c.31,0,.59,.05,.84,.14,.25,.09,.46,.23,.63,.41,.17,.18,.3,.4,.4,.65s.14,.54,.14,.86v3.92h-.94v-3.68c0-.45-.11-.79-.32-1.02-.21-.23-.53-.34-.95-.34-.32,0-.62,.08-.89,.25-.27,.16-.5,.39-.67,.67-.18,.29-.28,.62-.32,.99v-.68c.03-.33,.11-.62,.23-.89,.12-.27,.27-.49,.46-.69,.18-.19,.39-.34,.63-.44,.24-.1,.49-.15,.76-.15Zm3.94,0c.31,0,.59,.05,.84,.14,.25,.09,.46,.23,.63,.41,.17,.18,.31,.4,.4,.65s.14,.54,.14,.86v3.92h-.94v-3.68c0-.45-.11-.79-.32-1.02-.21-.23-.53-.34-.95-.34-.32,0-.62,.08-.89,.25-.27,.16-.5,.39-.67,.67-.18,.29-.28,.62-.32,.99v-.68c.03-.33,.11-.62,.23-.89,.12-.27,.27-.49,.46-.69,.18-.19,.39-.34,.63-.44,.24-.1,.49-.15,.76-.15Z" fill="#2f2e41"></path>
      <path d="M413.42,174.67v1.14h-1.22v-1.14h1.22Zm-1.08,2.35h.94v5.87h-.94v-5.87Z" fill="#2f2e41"></path>
      <path d="M414.89,177.02h.9l.04,1.23v6.98h-.94v-8.21Zm2.93,5.98c-.43,0-.78-.1-1.06-.3-.27-.2-.49-.46-.64-.77-.15-.32-.26-.65-.32-1-.06-.35-.09-.67-.09-.97,0-.42,.03-.82,.09-1.18,.06-.37,.16-.69,.31-.97,.15-.28,.36-.5,.64-.66,.28-.16,.64-.24,1.07-.24,.47,0,.9,.13,1.28,.4,.38,.27,.69,.63,.92,1.09,.23,.46,.35,.99,.35,1.57s-.12,1.11-.35,1.57c-.23,.46-.54,.82-.93,1.08-.39,.26-.81,.39-1.26,.39Zm-.24-.89c.36,0,.68-.09,.96-.28,.28-.18,.49-.44,.65-.76,.16-.33,.24-.69,.24-1.11,0-.62-.16-1.14-.48-1.55-.32-.41-.77-.62-1.36-.62-.34,0-.65,.09-.92,.28s-.47,.44-.62,.76-.22,.7-.22,1.13c0,.39,.06,.75,.19,1.07,.13,.32,.32,.58,.58,.78s.59,.29,.99,.29Z" fill="#2f2e41"></path>
      <path d="M421.28,180.99h.87c.02,.34,.15,.61,.38,.82,.23,.21,.57,.32,1,.32,.27,0,.48-.04,.63-.11s.26-.17,.33-.29c.07-.12,.11-.26,.11-.41,0-.18-.04-.32-.13-.43-.09-.11-.21-.19-.36-.26s-.33-.14-.52-.2c-.23-.09-.46-.18-.7-.28-.24-.1-.46-.22-.67-.35-.21-.14-.37-.3-.5-.5-.12-.2-.19-.44-.19-.72,0-.24,.05-.46,.14-.66s.23-.39,.41-.54c.18-.15,.38-.27,.62-.36,.24-.09,.5-.13,.79-.13,.39,0,.72,.08,.99,.23,.27,.16,.48,.38,.62,.66,.14,.29,.22,.62,.23,.99h-.81c-.05-.35-.17-.61-.33-.77s-.41-.24-.72-.24-.57,.07-.74,.21-.26,.33-.26,.56c0,.17,.06,.31,.19,.43s.29,.22,.49,.31,.41,.18,.64,.28c.23,.09,.45,.19,.66,.28,.21,.09,.4,.2,.56,.33s.29,.28,.39,.46c.1,.18,.15,.41,.15,.69,0,.33-.08,.62-.23,.87-.15,.25-.38,.45-.67,.59-.29,.14-.65,.21-1.07,.21-.38,0-.71-.05-.98-.15-.27-.1-.49-.23-.67-.39-.18-.16-.32-.33-.42-.51s-.16-.36-.19-.53-.04-.32-.02-.43Z" fill="#2f2e41"></path>
      <path d="M430.83,180.15v.33c0,.09-.02,.24-.05,.43-.04,.2-.09,.41-.18,.65-.08,.24-.2,.47-.35,.69-.15,.22-.35,.4-.59,.54-.24,.14-.53,.21-.89,.21-.23,0-.46-.03-.7-.1-.24-.07-.46-.18-.66-.33-.2-.15-.37-.37-.49-.64s-.19-.61-.19-1.02v-3.9h.94v3.66c0,.35,.06,.63,.17,.83,.11,.2,.27,.34,.46,.43s.41,.13,.66,.13c.4,0,.73-.1,1-.3,.27-.2,.47-.45,.61-.75,.14-.3,.23-.58,.26-.86Zm.88,2.73h-.94v-5.87h.94v5.87Z" fill="#2f2e41"></path>
      <path d="M433.23,177.02h.94v5.87h-.94v-5.87Zm2.96-.12c.31,0,.59,.05,.84,.14,.25,.09,.46,.23,.63,.41,.17,.18,.3,.4,.4,.65s.14,.54,.14,.86v3.92h-.94v-3.68c0-.45-.11-.79-.32-1.02-.21-.23-.53-.34-.95-.34-.32,0-.62,.08-.89,.25-.27,.16-.5,.39-.67,.67-.18,.29-.28,.62-.32,.99v-.68c.03-.33,.11-.62,.23-.89,.12-.27,.27-.49,.46-.69,.18-.19,.39-.34,.63-.44,.24-.1,.49-.15,.76-.15Zm3.94,0c.31,0,.59,.05,.84,.14,.25,.09,.46,.23,.63,.41,.17,.18,.31,.4,.4,.65s.14,.54,.14,.86v3.92h-.94v-3.68c0-.45-.11-.79-.32-1.02-.21-.23-.53-.34-.95-.34-.32,0-.62,.08-.89,.25-.27,.16-.5,.39-.67,.67-.18,.29-.28,.62-.32,.99v-.68c.03-.33,.11-.62,.23-.89,.12-.27,.27-.49,.46-.69,.18-.19,.39-.34,.63-.44,.24-.1,.49-.15,.76-.15Z" fill="#2f2e41"></path>
      <path d="M448.36,183c-.47,0-.9-.13-1.29-.39-.39-.26-.69-.62-.92-1.08-.23-.46-.34-.98-.34-1.57s.11-1.11,.33-1.57c.22-.46,.52-.83,.9-1.09s.82-.4,1.31-.4c.44,0,.8,.08,1.07,.24s.49,.38,.64,.66c.15,.28,.25,.61,.31,.97,.06,.37,.09,.76,.09,1.18,0,.3-.03,.62-.09,.97-.06,.35-.17,.68-.32,1-.15,.32-.37,.58-.64,.77s-.63,.3-1.06,.3Zm.23-.89c.4,0,.73-.1,.99-.29,.26-.2,.46-.46,.58-.78,.12-.33,.19-.68,.19-1.07,0-.43-.06-.81-.19-1.13s-.32-.58-.59-.76c-.26-.18-.59-.28-.98-.28-.59,0-1.04,.21-1.36,.62-.32,.41-.48,.93-.48,1.55,0,.42,.08,.78,.24,1.11,.16,.32,.38,.58,.66,.76,.28,.18,.59,.28,.94,.28Zm1.76-7.44h.94v8.21h-.86c-.02-.17-.03-.38-.05-.61-.02-.23-.03-.42-.03-.56v-7.04Z" fill="#2f2e41"></path>
      <path d="M455.54,183c-.5,0-.97-.12-1.41-.36-.44-.24-.79-.59-1.06-1.05-.27-.46-.4-1-.4-1.62s.13-1.17,.4-1.62c.27-.46,.62-.81,1.06-1.06,.44-.25,.91-.38,1.41-.38s.97,.12,1.4,.38c.43,.25,.78,.6,1.05,1.06,.27,.46,.4,1,.4,1.62s-.13,1.17-.4,1.62c-.27,.46-.62,.81-1.05,1.05-.43,.24-.9,.36-1.4,.36Zm0-.88c.33,0,.64-.08,.93-.25,.29-.16,.53-.41,.71-.73s.28-.72,.28-1.18-.09-.85-.28-1.18-.42-.57-.71-.75c-.29-.17-.6-.26-.93-.26s-.64,.08-.93,.25-.53,.42-.72,.74-.28,.72-.28,1.19,.09,.86,.28,1.18,.42,.57,.72,.73c.3,.16,.61,.25,.94,.25Z" fill="#2f2e41"></path>
      <path d="M459.7,174.67h.94v8.21h-.94v-8.21Z" fill="#2f2e41"></path>
      <path d="M464.83,183c-.5,0-.97-.12-1.41-.36-.44-.24-.79-.59-1.06-1.05-.27-.46-.4-1-.4-1.62s.13-1.17,.4-1.62c.27-.46,.62-.81,1.06-1.06,.44-.25,.91-.38,1.41-.38s.97,.12,1.4,.38c.43,.25,.78,.6,1.05,1.06,.27,.46,.4,1,.4,1.62s-.13,1.17-.4,1.62c-.27,.46-.62,.81-1.05,1.05-.43,.24-.9,.36-1.4,.36Zm0-.88c.33,0,.64-.08,.93-.25,.29-.16,.53-.41,.71-.73s.28-.72,.28-1.18-.09-.85-.28-1.18-.42-.57-.71-.75c-.29-.17-.6-.26-.93-.26s-.64,.08-.93,.25-.53,.42-.72,.74-.28,.72-.28,1.19,.09,.86,.28,1.18,.42,.57,.72,.73c.3,.16,.61,.25,.94,.25Z" fill="#2f2e41"></path>
      <path d="M468.88,177.02h.94v5.87h-.94v-5.87Zm2.82,.88c-.4,0-.73,.1-1,.3-.27,.2-.48,.44-.63,.73-.15,.29-.25,.56-.3,.83v-.68c-.01-.07,0-.19,.04-.35s.09-.35,.18-.56,.2-.41,.35-.6c.14-.19,.33-.35,.56-.47,.23-.12,.5-.19,.82-.19v1Z" fill="#2f2e41"></path>
      <path d="M474.93,180.99h.87c.02,.34,.15,.61,.38,.82,.23,.21,.57,.32,1,.32,.27,0,.48-.04,.63-.11s.26-.17,.33-.29c.07-.12,.11-.26,.11-.41,0-.18-.04-.32-.13-.43-.09-.11-.21-.19-.36-.26s-.33-.14-.52-.2c-.23-.09-.46-.18-.7-.28-.24-.1-.46-.22-.67-.35-.21-.14-.37-.3-.5-.5-.12-.2-.19-.44-.19-.72,0-.24,.05-.46,.14-.66s.23-.39,.41-.54c.18-.15,.38-.27,.62-.36,.24-.09,.5-.13,.79-.13,.39,0,.72,.08,.99,.23,.27,.16,.48,.38,.62,.66,.14,.29,.22,.62,.23,.99h-.81c-.05-.35-.17-.61-.33-.77s-.41-.24-.72-.24-.57,.07-.74,.21-.26,.33-.26,.56c0,.17,.06,.31,.19,.43s.29,.22,.49,.31,.41,.18,.64,.28c.23,.09,.45,.19,.66,.28,.21,.09,.4,.2,.56,.33s.29,.28,.39,.46c.1,.18,.15,.41,.15,.69,0,.33-.08,.62-.23,.87-.15,.25-.38,.45-.67,.59-.29,.14-.65,.21-1.07,.21-.38,0-.71-.05-.98-.15-.27-.1-.49-.23-.67-.39-.18-.16-.32-.33-.42-.51s-.16-.36-.19-.53-.04-.32-.02-.43Z" fill="#2f2e41"></path>
      <path d="M481.55,174.67v1.14h-1.22v-1.14h1.22Zm-1.08,2.35h.94v5.87h-.94v-5.87Z" fill="#2f2e41"></path>
      <path d="M482.61,177.02h3.45v.88h-3.45v-.88Zm1.26-1.53h.94v7.39h-.94v-7.39Z" fill="#2f2e41"></path>
      <path d="M491.85,183c-.46,0-.89-.13-1.27-.39-.39-.26-.7-.62-.93-1.08-.23-.46-.35-.98-.35-1.57s.12-1.11,.35-1.57c.23-.46,.55-.83,.96-1.09,.4-.27,.85-.4,1.36-.4,.55,0,.96,.14,1.25,.42,.29,.28,.48,.65,.59,1.11,.11,.46,.16,.97,.16,1.54,0,.3-.03,.62-.09,.97-.06,.35-.17,.68-.32,1-.15,.32-.37,.58-.64,.77s-.63,.3-1.06,.3Zm.23-.89c.4,0,.73-.1,.99-.29,.26-.2,.46-.46,.58-.78,.12-.33,.19-.68,.19-1.07,0-.43-.06-.81-.19-1.13s-.32-.58-.59-.76c-.26-.18-.59-.28-.98-.28-.59,0-1.04,.21-1.36,.62-.32,.41-.48,.93-.48,1.55,0,.42,.08,.78,.24,1.11,.16,.32,.38,.58,.66,.76,.28,.18,.59,.28,.94,.28Zm1.76-5.09h.94v5.87h-.86c-.02-.28-.04-.52-.06-.7s-.02-.34-.02-.47v-4.69Z" fill="#2f2e41"></path>
      <path d="M496.31,177.02h.94v5.87h-.94v-5.87Zm2.96-.12c.31,0,.59,.05,.84,.14,.25,.09,.46,.23,.63,.41,.17,.18,.3,.4,.4,.65s.14,.54,.14,.86v3.92h-.94v-3.68c0-.45-.11-.79-.32-1.02-.21-.23-.53-.34-.95-.34-.32,0-.62,.08-.89,.25-.27,.16-.5,.39-.67,.67-.18,.29-.28,.62-.32,.99v-.68c.03-.33,.11-.62,.23-.89,.12-.27,.27-.49,.46-.69,.18-.19,.39-.34,.63-.44,.24-.1,.49-.15,.76-.15Zm3.94,0c.31,0,.59,.05,.84,.14,.25,.09,.46,.23,.63,.41,.17,.18,.31,.4,.4,.65s.14,.54,.14,.86v3.92h-.94v-3.68c0-.45-.11-.79-.32-1.02-.21-.23-.53-.34-.95-.34-.32,0-.62,.08-.89,.25-.27,.16-.5,.39-.67,.67-.18,.29-.28,.62-.32,.99v-.68c.03-.33,.11-.62,.23-.89,.12-.27,.27-.49,.46-.69,.18-.19,.39-.34,.63-.44,.24-.1,.49-.15,.76-.15Z" fill="#2f2e41"></path>
      <path d="M510.91,180.99h.88c-.06,.38-.2,.73-.42,1.03-.22,.3-.5,.54-.84,.72-.35,.18-.75,.26-1.2,.26-.55,0-1.04-.13-1.48-.39-.44-.26-.78-.62-1.04-1.08-.25-.46-.38-.98-.38-1.57s.12-1.11,.37-1.57c.25-.46,.58-.83,1.01-1.09,.43-.27,.92-.4,1.46-.4,.57,0,1.05,.13,1.45,.38,.39,.25,.69,.63,.88,1.11,.19,.49,.27,1.09,.23,1.8h-4.46c.04,.38,.14,.72,.32,1.01s.4,.51,.68,.67,.6,.24,.96,.24c.4,0,.74-.1,1.01-.31,.28-.21,.47-.48,.57-.82Zm-1.61-3.21c-.49,0-.89,.14-1.22,.42-.33,.28-.55,.67-.66,1.15h3.44c-.03-.52-.2-.91-.5-1.17-.3-.27-.65-.4-1.06-.4Z" fill="#2f2e41"></path>
      <path d="M512.5,177.02h3.45v.88h-3.45v-.88Zm1.26-1.53h.94v7.39h-.94v-7.39Z" fill="#2f2e41"></path>
      <path d="M516.7,184.55l-.25-.26c.12-.22,.23-.44,.33-.65s.14-.42,.15-.63l-.57-.13v-1.14h1.27v.82c0,.48-.1,.87-.29,1.17s-.41,.58-.64,.81Z" fill="#2f2e41"></path>
      <path d="M526.59,180.68c-.05,.49-.21,.9-.46,1.25-.25,.35-.57,.61-.96,.8-.38,.18-.8,.28-1.24,.28-.5,0-.97-.12-1.41-.36-.44-.24-.79-.59-1.06-1.05-.27-.46-.4-1-.4-1.62s.13-1.17,.4-1.62c.27-.46,.62-.81,1.06-1.06,.44-.25,.91-.38,1.41-.38,.45,0,.86,.09,1.24,.28,.38,.19,.7,.45,.95,.8,.25,.34,.41,.75,.47,1.23h-.86c-.13-.45-.36-.8-.69-1.05-.33-.25-.7-.38-1.12-.38-.34,0-.65,.09-.95,.26-.3,.17-.54,.42-.72,.75s-.27,.72-.27,1.18,.09,.84,.27,1.17,.42,.57,.71,.74,.61,.25,.96,.25c.48,0,.87-.13,1.17-.38,.3-.25,.52-.61,.65-1.06h.84Z" fill="#2f2e41"></path>
      <path d="M530.34,183c-.5,0-.97-.12-1.41-.36-.44-.24-.79-.59-1.06-1.05-.27-.46-.4-1-.4-1.62s.13-1.17,.4-1.62c.27-.46,.62-.81,1.06-1.06,.44-.25,.91-.38,1.41-.38s.97,.12,1.4,.38c.43,.25,.78,.6,1.05,1.06,.27,.46,.4,1,.4,1.62s-.13,1.17-.4,1.62c-.27,.46-.62,.81-1.05,1.05-.43,.24-.9,.36-1.4,.36Zm0-.88c.33,0,.64-.08,.93-.25,.29-.16,.53-.41,.71-.73s.28-.72,.28-1.18-.09-.85-.28-1.18-.42-.57-.71-.75c-.29-.17-.6-.26-.93-.26s-.64,.08-.93,.25-.53,.42-.72,.74-.28,.72-.28,1.19,.09,.86,.28,1.18,.42,.57,.72,.73c.3,.16,.61,.25,.94,.25Z" fill="#2f2e41"></path>
      <path d="M534.38,177.02h.94v5.87h-.94v-5.87Zm2.96-.12c.31,0,.59,.05,.84,.14,.25,.09,.46,.23,.63,.41,.17,.18,.3,.4,.4,.65s.14,.54,.14,.86v3.92h-.94v-3.68c0-.45-.11-.79-.32-1.02-.21-.23-.53-.34-.95-.34-.32,0-.62,.08-.89,.25-.27,.16-.5,.39-.67,.67-.18,.29-.28,.62-.32,.99v-.68c.03-.33,.11-.62,.23-.89,.12-.27,.27-.49,.46-.69,.18-.19,.39-.34,.63-.44,.24-.1,.49-.15,.76-.15Z" fill="#2f2e41"></path>
      <path d="M540.6,180.99h.87c.02,.34,.15,.61,.38,.82,.23,.21,.57,.32,1,.32,.27,0,.48-.04,.63-.11s.26-.17,.33-.29c.07-.12,.11-.26,.11-.41,0-.18-.04-.32-.13-.43-.09-.11-.21-.19-.36-.26s-.33-.14-.52-.2c-.23-.09-.46-.18-.7-.28-.24-.1-.46-.22-.67-.35-.21-.14-.37-.3-.5-.5-.12-.2-.19-.44-.19-.72,0-.24,.05-.46,.14-.66s.23-.39,.41-.54c.18-.15,.38-.27,.62-.36,.24-.09,.5-.13,.79-.13,.39,0,.72,.08,.99,.23,.27,.16,.48,.38,.62,.66,.14,.29,.22,.62,.23,.99h-.81c-.05-.35-.17-.61-.33-.77s-.41-.24-.72-.24-.57,.07-.74,.21-.26,.33-.26,.56c0,.17,.06,.31,.19,.43s.29,.22,.49,.31,.41,.18,.64,.28c.23,.09,.45,.19,.66,.28,.21,.09,.4,.2,.56,.33s.29,.28,.39,.46c.1,.18,.15,.41,.15,.69,0,.33-.08,.62-.23,.87-.15,.25-.38,.45-.67,.59-.29,.14-.65,.21-1.07,.21-.38,0-.71-.05-.98-.15-.27-.1-.49-.23-.67-.39-.18-.16-.32-.33-.42-.51s-.16-.36-.19-.53-.04-.32-.02-.43Z" fill="#2f2e41"></path>
      <path d="M550.21,180.99h.88c-.06,.38-.2,.73-.42,1.03-.22,.3-.5,.54-.84,.72-.35,.18-.75,.26-1.2,.26-.55,0-1.04-.13-1.48-.39-.44-.26-.78-.62-1.04-1.08-.25-.46-.38-.98-.38-1.57s.12-1.11,.37-1.57c.25-.46,.58-.83,1.01-1.09,.43-.27,.92-.4,1.46-.4,.57,0,1.05,.13,1.45,.38,.39,.25,.69,.63,.88,1.11,.19,.49,.27,1.09,.23,1.8h-4.46c.04,.38,.14,.72,.32,1.01s.4,.51,.68,.67,.6,.24,.96,.24c.4,0,.74-.1,1.01-.31,.28-.21,.47-.48,.57-.82Zm-1.61-3.21c-.49,0-.89,.14-1.22,.42-.33,.28-.55,.67-.66,1.15h3.44c-.03-.52-.2-.91-.5-1.17-.3-.27-.65-.4-1.06-.4Z" fill="#2f2e41"></path>
      <path d="M557.54,180.68c-.05,.49-.21,.9-.46,1.25-.25,.35-.57,.61-.96,.8-.38,.18-.8,.28-1.24,.28-.5,0-.97-.12-1.41-.36-.44-.24-.79-.59-1.06-1.05-.27-.46-.4-1-.4-1.62s.13-1.17,.4-1.62c.27-.46,.62-.81,1.06-1.06,.44-.25,.91-.38,1.41-.38,.45,0,.86,.09,1.24,.28,.38,.19,.7,.45,.95,.8,.25,.34,.41,.75,.47,1.23h-.86c-.13-.45-.36-.8-.69-1.05-.33-.25-.7-.38-1.12-.38-.34,0-.65,.09-.95,.26-.3,.17-.54,.42-.72,.75s-.27,.72-.27,1.18,.09,.84,.27,1.17,.42,.57,.71,.74,.61,.25,.96,.25c.48,0,.87-.13,1.17-.38,.3-.25,.52-.61,.65-1.06h.84Z" fill="#2f2e41"></path>
      <path d="M558.33,177.02h3.45v.88h-3.45v-.88Zm1.26-1.53h.94v7.39h-.94v-7.39Z" fill="#2f2e41"></path>
      <path d="M566.93,180.99h.88c-.06,.38-.2,.73-.42,1.03-.22,.3-.5,.54-.84,.72-.35,.18-.75,.26-1.2,.26-.55,0-1.04-.13-1.48-.39-.44-.26-.78-.62-1.04-1.08-.25-.46-.38-.98-.38-1.57s.12-1.11,.37-1.57c.25-.46,.58-.83,1.01-1.09,.43-.27,.92-.4,1.46-.4,.57,0,1.05,.13,1.45,.38,.39,.25,.69,.63,.88,1.11,.19,.49,.27,1.09,.23,1.8h-4.46c.04,.38,.14,.72,.32,1.01s.4,.51,.68,.67,.6,.24,.96,.24c.4,0,.74-.1,1.01-.31,.28-.21,.47-.48,.57-.82Zm-1.61-3.21c-.49,0-.89,.14-1.22,.42-.33,.28-.55,.67-.66,1.15h3.44c-.03-.52-.2-.91-.5-1.17-.3-.27-.65-.4-1.06-.4Z" fill="#2f2e41"></path>
      <path d="M568.53,177.02h3.45v.88h-3.45v-.88Zm1.26-1.53h.94v7.39h-.94v-7.39Z" fill="#2f2e41"></path>
      <path d="M577.19,180.15v.33c0,.09-.02,.24-.05,.43-.04,.2-.09,.41-.18,.65-.08,.24-.2,.47-.35,.69-.15,.22-.35,.4-.59,.54-.24,.14-.53,.21-.89,.21-.23,0-.46-.03-.7-.1-.24-.07-.46-.18-.66-.33-.2-.15-.37-.37-.49-.64s-.19-.61-.19-1.02v-3.9h.94v3.66c0,.35,.06,.63,.17,.83,.11,.2,.27,.34,.46,.43s.41,.13,.66,.13c.4,0,.73-.1,1-.3,.27-.2,.47-.45,.61-.75,.14-.3,.23-.58,.26-.86Zm.88,2.73h-.94v-5.87h.94v5.87Z" fill="#2f2e41"></path>
      <path d="M579.59,177.02h.94v5.87h-.94v-5.87Zm2.82,.88c-.4,0-.73,.1-1,.3-.27,.2-.48,.44-.63,.73-.15,.29-.25,.56-.3,.83v-.68c-.01-.07,0-.19,.04-.35s.09-.35,.18-.56,.2-.41,.35-.6c.14-.19,.33-.35,.56-.47,.23-.12,.5-.19,.82-.19v1Z" fill="#2f2e41"></path>
      <path d="M378.37,197.08c-.46,0-.89-.13-1.27-.39-.39-.26-.7-.62-.93-1.08-.23-.46-.35-.98-.35-1.57s.12-1.11,.35-1.57c.23-.46,.55-.83,.96-1.09,.4-.27,.85-.4,1.36-.4,.55,0,.96,.14,1.25,.42,.29,.28,.48,.65,.59,1.11,.11,.46,.16,.97,.16,1.54,0,.3-.03,.62-.09,.97-.06,.35-.17,.68-.32,1-.15,.32-.37,.58-.64,.77s-.63,.3-1.06,.3Zm.23-.89c.4,0,.73-.1,.99-.29,.26-.2,.46-.46,.58-.78,.12-.33,.19-.68,.19-1.07,0-.43-.06-.81-.19-1.13s-.32-.58-.59-.76c-.26-.18-.59-.28-.98-.28-.59,0-1.04,.21-1.36,.62-.32,.41-.48,.93-.48,1.55,0,.42,.08,.78,.24,1.11,.16,.32,.38,.58,.66,.76,.28,.18,.59,.28,.94,.28Zm1.76-5.09h.94v5.87h-.86c-.02-.28-.04-.52-.06-.7s-.02-.34-.02-.47v-4.69Z" fill="#2f2e41"></path>
      <path d="M385.05,197.08c-.47,0-.9-.13-1.29-.39-.39-.26-.69-.62-.92-1.08-.23-.46-.34-.98-.34-1.57s.11-1.11,.33-1.57c.22-.46,.52-.83,.9-1.09s.82-.4,1.31-.4c.44,0,.8,.08,1.07,.24s.49,.38,.64,.66c.15,.28,.25,.61,.31,.97,.06,.37,.09,.76,.09,1.18,0,.3-.03,.62-.09,.97-.06,.35-.17,.68-.32,1-.15,.32-.37,.58-.64,.77s-.63,.3-1.06,.3Zm.23-.89c.4,0,.73-.1,.99-.29,.26-.2,.46-.46,.58-.78,.12-.33,.19-.68,.19-1.07,0-.43-.06-.81-.19-1.13s-.32-.58-.59-.76c-.26-.18-.59-.28-.98-.28-.59,0-1.04,.21-1.36,.62-.32,.41-.48,.93-.48,1.55,0,.42,.08,.78,.24,1.11,.16,.32,.38,.58,.66,.76,.28,.18,.59,.28,.94,.28Zm1.76-7.44h.94v8.21h-.86c-.02-.17-.03-.38-.05-.61-.02-.23-.03-.42-.03-.56v-7.04Z" fill="#2f2e41"></path>
      <path d="M390.84,188.75v1.14h-1.22v-1.14h1.22Zm-1.08,2.35h.94v5.87h-.94v-5.87Z" fill="#2f2e41"></path>
      <path d="M392.31,191.1h.9l.04,1.23v6.98h-.94v-8.21Zm2.93,5.98c-.43,0-.78-.1-1.06-.3-.27-.2-.49-.46-.64-.77-.15-.32-.26-.65-.32-1-.06-.35-.09-.67-.09-.97,0-.42,.03-.82,.09-1.18,.06-.37,.16-.69,.31-.97,.15-.28,.36-.5,.64-.66,.28-.16,.64-.24,1.07-.24,.47,0,.9,.13,1.28,.4,.38,.27,.69,.63,.92,1.09,.23,.46,.35,.99,.35,1.57s-.12,1.11-.35,1.57c-.23,.46-.54,.82-.93,1.08-.39,.26-.81,.39-1.26,.39Zm-.24-.89c.36,0,.68-.09,.96-.28,.28-.18,.49-.44,.65-.76,.16-.33,.24-.69,.24-1.11,0-.62-.16-1.14-.48-1.55-.32-.41-.77-.62-1.36-.62-.34,0-.65,.09-.92,.28s-.47,.44-.62,.76-.22,.7-.22,1.13c0,.39,.06,.75,.19,1.07,.13,.32,.32,.58,.58,.78s.59,.29,.99,.29Z" fill="#2f2e41"></path>
      <path d="M400.15,188.75v1.14h-1.22v-1.14h1.22Zm-1.08,2.35h.94v5.87h-.94v-5.87Z" fill="#2f2e41"></path>
      <path d="M401.33,195.07h.87c.02,.34,.15,.61,.38,.82,.23,.21,.57,.32,1,.32,.27,0,.48-.04,.63-.11s.26-.17,.33-.29c.07-.12,.11-.26,.11-.41,0-.18-.04-.32-.13-.43-.09-.11-.21-.19-.36-.26s-.33-.14-.52-.2c-.23-.09-.46-.18-.7-.28-.24-.1-.46-.22-.67-.35-.21-.14-.37-.3-.5-.5-.12-.2-.19-.44-.19-.72,0-.24,.05-.46,.14-.66s.23-.39,.41-.54c.18-.15,.38-.27,.62-.36,.24-.09,.5-.13,.79-.13,.39,0,.72,.08,.99,.23,.27,.16,.48,.38,.62,.66,.14,.29,.22,.62,.23,.99h-.81c-.05-.35-.17-.61-.33-.77s-.41-.24-.72-.24-.57,.07-.74,.21-.26,.33-.26,.56c0,.17,.06,.31,.19,.43s.29,.22,.49,.31,.41,.18,.64,.28c.23,.09,.45,.19,.66,.28,.21,.09,.4,.2,.56,.33s.29,.28,.39,.46c.1,.18,.15,.41,.15,.69,0,.33-.08,.62-.23,.87-.15,.25-.38,.45-.67,.59-.29,.14-.65,.21-1.07,.21-.38,0-.71-.05-.98-.15-.27-.1-.49-.23-.67-.39-.18-.16-.32-.33-.42-.51s-.16-.36-.19-.53-.04-.32-.02-.43Z" fill="#2f2e41"></path>
      <path d="M412,194.76c-.05,.49-.21,.9-.46,1.25-.25,.35-.57,.61-.96,.8-.38,.18-.8,.28-1.24,.28-.5,0-.97-.12-1.41-.36-.44-.24-.79-.59-1.06-1.05-.27-.46-.4-1-.4-1.62s.13-1.17,.4-1.62c.27-.46,.62-.81,1.06-1.06,.44-.25,.91-.38,1.41-.38,.45,0,.86,.09,1.24,.28,.38,.19,.7,.45,.95,.8,.25,.34,.41,.75,.47,1.23h-.86c-.13-.45-.36-.8-.69-1.05-.33-.25-.7-.38-1.12-.38-.34,0-.65,.09-.95,.26-.3,.17-.54,.42-.72,.75s-.27,.72-.27,1.18,.09,.84,.27,1.17,.42,.57,.71,.74,.61,.25,.96,.25c.48,0,.87-.13,1.17-.38,.3-.25,.52-.61,.65-1.06h.84Z" fill="#2f2e41"></path>
      <path d="M414.36,188.75v1.14h-1.22v-1.14h1.22Zm-1.08,2.35h.94v5.87h-.94v-5.87Z" fill="#2f2e41"></path>
      <path d="M415.82,191.1h.94v5.87h-.94v-5.87Zm2.96-.12c.31,0,.59,.05,.84,.14,.25,.09,.46,.23,.63,.41,.17,.18,.3,.4,.4,.65s.14,.54,.14,.86v3.92h-.94v-3.68c0-.45-.11-.79-.32-1.02-.21-.23-.53-.34-.95-.34-.32,0-.62,.08-.89,.25-.27,.16-.5,.39-.67,.67-.18,.29-.28,.62-.32,.99v-.68c.03-.33,.11-.62,.23-.89,.12-.27,.27-.49,.46-.69,.18-.19,.39-.34,.63-.44,.24-.1,.49-.15,.76-.15Z" fill="#2f2e41"></path>
      <path d="M424.42,196.04c-.42,0-.81-.1-1.18-.3-.37-.2-.67-.49-.9-.86-.23-.38-.35-.83-.35-1.35s.11-.98,.34-1.36c.23-.38,.52-.67,.89-.88,.37-.21,.77-.31,1.2-.31,.13,0,.26,0,.38,.03s.24,.05,.35,.09h2.38v1.01c-.34,0-.67-.06-1-.19-.33-.12-.62-.25-.85-.39l-.05-.05c.27,.15,.5,.33,.67,.53s.31,.43,.4,.69c.09,.25,.14,.53,.14,.83,0,.52-.11,.97-.33,1.35-.22,.38-.52,.66-.89,.86-.37,.2-.77,.3-1.2,.3Zm1.72,3.27v-.26c0-.42-.11-.72-.32-.9-.21-.19-.54-.28-.97-.28h-1.17c-.26,0-.48-.02-.67-.06-.19-.04-.35-.11-.48-.19s-.22-.19-.28-.32-.09-.27-.09-.42c0-.3,.09-.52,.27-.67s.4-.25,.67-.29,.52-.04,.76,0l.56,.13c-.42,.02-.75,.07-.98,.13-.23,.06-.35,.2-.35,.4,0,.12,.04,.21,.13,.29s.22,.11,.41,.11h1.22c.41,0,.78,.06,1.12,.17,.34,.11,.61,.31,.81,.58,.2,.27,.3,.64,.3,1.11v.49h-.94Zm-1.72-4.15c.26,0,.5-.06,.72-.19,.22-.13,.41-.31,.55-.55s.21-.54,.21-.89-.07-.65-.21-.9c-.14-.25-.32-.43-.55-.56-.23-.13-.47-.19-.73-.19s-.5,.06-.73,.19c-.23,.13-.41,.31-.55,.56-.14,.24-.21,.54-.21,.9s.07,.65,.21,.89,.32,.43,.55,.55c.23,.12,.47,.19,.73,.19Z" fill="#2f2e41"></path>
      <path d="M435.25,195.07h.88c-.06,.38-.2,.73-.42,1.03-.22,.3-.5,.54-.84,.72-.35,.18-.75,.26-1.2,.26-.55,0-1.04-.13-1.48-.39-.44-.26-.78-.62-1.04-1.08-.25-.46-.38-.98-.38-1.57s.12-1.11,.37-1.57c.25-.46,.58-.83,1.01-1.09,.43-.27,.92-.4,1.46-.4,.57,0,1.05,.13,1.45,.38,.39,.25,.69,.63,.88,1.11,.19,.49,.27,1.09,.23,1.8h-4.46c.04,.38,.14,.72,.32,1.01s.4,.51,.68,.67,.6,.24,.96,.24c.4,0,.74-.1,1.01-.31,.28-.21,.47-.48,.57-.82Zm-1.61-3.21c-.49,0-.89,.14-1.22,.42-.33,.28-.55,.67-.66,1.15h3.44c-.03-.52-.2-.91-.5-1.17-.3-.27-.65-.4-1.06-.4Z" fill="#2f2e41"></path>
      <path d="M437.49,188.75h.94v8.21h-.94v-8.21Z" fill="#2f2e41"></path>
      <path d="M441.24,188.75v1.14h-1.22v-1.14h1.22Zm-1.08,2.35h.94v5.87h-.94v-5.87Z" fill="#2f2e41"></path>
      <path d="M442.29,191.1h3.45v.88h-3.45v-.88Zm1.26-1.53h.94v7.39h-.94v-7.39Z" fill="#2f2e41"></path>
      <path d="M447.61,195.81v1.15h-1.22v-1.15h1.22Z" fill="#2f2e41"></path>
    </g>
    <g>
      <path d="M567.58,92.83v-7.63h3.37c.53,0,.99,.08,1.36,.24,.38,.16,.66,.4,.86,.72,.2,.32,.3,.72,.3,1.21,0,.33-.05,.61-.16,.84-.11,.24-.25,.43-.44,.59s-.41,.28-.66,.37c-.25,.09-.53,.14-.83,.17l-.04-.06c.41,.02,.77,.07,1.07,.15,.3,.09,.53,.24,.69,.47,.16,.23,.25,.57,.25,1.02v1.9h-.94v-1.9c0-.31-.05-.56-.16-.73-.11-.18-.28-.3-.53-.38-.25-.07-.58-.11-1.01-.11h-2.19v3.12h-.94Zm.94-4h2.43c.53,0,.93-.13,1.19-.41,.26-.27,.39-.62,.39-1.05s-.13-.73-.39-.96c-.26-.22-.66-.33-1.19-.33h-2.43v2.75Z" fill="#2f2e41"></path>
      <path d="M579.09,90.94h.88c-.06,.38-.2,.73-.42,1.03-.22,.3-.5,.54-.84,.72-.35,.18-.75,.26-1.2,.26-.55,0-1.04-.13-1.48-.39-.44-.26-.78-.62-1.04-1.08-.25-.46-.38-.98-.38-1.57s.12-1.11,.37-1.57c.25-.46,.58-.83,1.01-1.09,.43-.27,.92-.4,1.46-.4,.57,0,1.05,.13,1.45,.38,.39,.25,.69,.63,.88,1.11,.19,.49,.27,1.09,.23,1.8h-4.46c.04,.38,.14,.72,.32,1.01s.4,.51,.68,.67,.6,.24,.96,.24c.4,0,.74-.1,1.01-.31,.28-.21,.47-.48,.57-.82Zm-1.61-3.21c-.49,0-.89,.14-1.22,.42-.33,.28-.55,.67-.66,1.15h3.44c-.03-.52-.2-.91-.5-1.17-.3-.27-.65-.4-1.06-.4Z" fill="#2f2e41"></path>
      <path d="M583.32,91.9c-.42,0-.81-.1-1.18-.3-.37-.2-.67-.49-.9-.86-.23-.38-.35-.83-.35-1.35s.11-.98,.34-1.36c.23-.38,.52-.67,.89-.88,.37-.21,.77-.31,1.2-.31,.13,0,.26,0,.38,.03s.24,.05,.35,.09h2.38v1.01c-.34,0-.67-.06-1-.19-.33-.12-.62-.25-.85-.39l-.05-.05c.27,.15,.5,.33,.67,.53s.31,.43,.4,.69c.09,.25,.14,.53,.14,.83,0,.52-.11,.97-.33,1.35-.22,.38-.52,.66-.89,.86-.37,.2-.77,.3-1.2,.3Zm1.72,3.27v-.26c0-.42-.11-.72-.32-.9-.21-.19-.54-.28-.97-.28h-1.17c-.26,0-.48-.02-.67-.06-.19-.04-.35-.11-.48-.19s-.22-.19-.28-.32-.09-.27-.09-.42c0-.3,.09-.52,.27-.67s.4-.25,.67-.29,.52-.04,.76,0l.56,.13c-.42,.02-.75,.07-.98,.13-.23,.06-.35,.2-.35,.4,0,.12,.04,.21,.13,.29s.22,.11,.41,.11h1.22c.41,0,.78,.06,1.12,.17,.34,.11,.61,.31,.81,.58,.2,.27,.3,.64,.3,1.11v.49h-.94Zm-1.72-4.15c.26,0,.5-.06,.72-.19,.22-.13,.41-.31,.55-.55s.21-.54,.21-.89-.07-.65-.21-.9c-.14-.25-.32-.43-.55-.56-.23-.13-.47-.19-.73-.19s-.5,.06-.73,.19c-.23,.13-.41,.31-.55,.56-.14,.24-.21,.54-.21,.9s.07,.65,.21,.89,.32,.43,.55,.55c.23,.12,.47,.19,.73,.19Z" fill="#2f2e41"></path>
      <path d="M588.69,84.62v1.14h-1.22v-1.14h1.22Zm-1.08,2.35h.94v5.87h-.94v-5.87Z" fill="#2f2e41"></path>
      <path d="M589.88,90.94h.87c.02,.34,.15,.61,.38,.82,.23,.21,.57,.32,1,.32,.27,0,.48-.04,.63-.11s.26-.17,.33-.29c.07-.12,.11-.26,.11-.41,0-.18-.04-.32-.13-.43-.09-.11-.21-.19-.36-.26s-.33-.14-.52-.2c-.23-.09-.46-.18-.7-.28-.24-.1-.46-.22-.67-.35-.21-.14-.37-.3-.5-.5-.12-.2-.19-.44-.19-.72,0-.24,.05-.46,.14-.66s.23-.39,.41-.54c.18-.15,.38-.27,.62-.36,.24-.09,.5-.13,.79-.13,.39,0,.72,.08,.99,.23,.27,.16,.48,.38,.62,.66,.14,.29,.22,.62,.23,.99h-.81c-.05-.35-.17-.61-.33-.77s-.41-.24-.72-.24-.57,.07-.74,.21-.26,.33-.26,.56c0,.17,.06,.31,.19,.43s.29,.22,.49,.31,.41,.18,.64,.28c.23,.09,.45,.19,.66,.28,.21,.09,.4,.2,.56,.33s.29,.28,.39,.46c.1,.18,.15,.41,.15,.69,0,.33-.08,.62-.23,.87-.15,.25-.38,.45-.67,.59-.29,.14-.65,.21-1.07,.21-.38,0-.71-.05-.98-.15-.27-.1-.49-.23-.67-.39-.18-.16-.32-.33-.42-.51s-.16-.36-.19-.53-.04-.32-.02-.43Z" fill="#2f2e41"></path>
      <path d="M594.92,86.97h3.45v.88h-3.45v-.88Zm1.26-1.53h.94v7.39h-.94v-7.39Z" fill="#2f2e41"></path>
      <path d="M603.52,90.94h.88c-.06,.38-.2,.73-.42,1.03-.22,.3-.5,.54-.84,.72-.35,.18-.75,.26-1.2,.26-.55,0-1.04-.13-1.48-.39-.44-.26-.78-.62-1.04-1.08-.25-.46-.38-.98-.38-1.57s.12-1.11,.37-1.57c.25-.46,.58-.83,1.01-1.09,.43-.27,.92-.4,1.46-.4,.57,0,1.05,.13,1.45,.38,.39,.25,.69,.63,.88,1.11,.19,.49,.27,1.09,.23,1.8h-4.46c.04,.38,.14,.72,.32,1.01s.4,.51,.68,.67,.6,.24,.96,.24c.4,0,.74-.1,1.01-.31,.28-.21,.47-.48,.57-.82Zm-1.61-3.21c-.49,0-.89,.14-1.22,.42-.33,.28-.55,.67-.66,1.15h3.44c-.03-.52-.2-.91-.5-1.17-.3-.27-.65-.4-1.06-.4Z" fill="#2f2e41"></path>
      <path d="M605.64,86.97h.94v5.87h-.94v-5.87Zm2.82,.88c-.4,0-.73,.1-1,.3-.27,.2-.48,.44-.63,.73-.15,.29-.25,.56-.3,.83v-.68c-.01-.07,0-.19,.04-.35s.09-.35,.18-.56,.2-.41,.35-.6c.14-.19,.33-.35,.56-.47,.23-.12,.5-.19,.82-.19v1Z" fill="#2f2e41"></path>
    </g>
    <g>
      <path d="M523.41,384.18v.88h-4.46v2.51h3.65v.88h-3.65v3.36h-.94v-7.63h5.4Z" fill="#2f2e41"></path>
      <path d="M526.66,391.93c-.5,0-.97-.12-1.41-.36-.44-.24-.79-.59-1.06-1.05-.27-.46-.4-1-.4-1.62s.13-1.17,.4-1.62c.27-.46,.62-.81,1.06-1.06,.44-.25,.91-.38,1.41-.38s.97,.12,1.4,.38c.43,.25,.78,.6,1.05,1.06,.27,.46,.4,1,.4,1.62s-.13,1.17-.4,1.62c-.27,.46-.62,.81-1.05,1.05-.43,.24-.9,.36-1.4,.36Zm0-.88c.33,0,.64-.08,.93-.25,.29-.16,.53-.41,.71-.73s.28-.72,.28-1.18-.09-.85-.28-1.18-.42-.57-.71-.75c-.29-.17-.6-.26-.93-.26s-.64,.08-.93,.25-.53,.42-.72,.74-.28,.72-.28,1.19,.09,.86,.28,1.18,.42,.57,.72,.73c.3,.16,.61,.25,.94,.25Z" fill="#2f2e41"></path>
      <path d="M530.71,385.94h.94v5.87h-.94v-5.87Zm2.82,.88c-.4,0-.73,.1-1,.3-.27,.2-.48,.44-.63,.73-.15,.29-.25,.56-.3,.83v-.68c-.01-.07,0-.19,.04-.35s.09-.35,.18-.56,.2-.41,.35-.6c.14-.19,.33-.35,.56-.47,.23-.12,.5-.19,.82-.19v1Z" fill="#2f2e41"></path>
      <path d="M536.68,390.88c-.42,0-.81-.1-1.18-.3-.37-.2-.67-.49-.9-.86-.23-.38-.35-.83-.35-1.35s.11-.98,.34-1.36c.23-.38,.52-.67,.89-.88,.37-.21,.77-.31,1.2-.31,.13,0,.26,0,.38,.03s.24,.05,.35,.09h2.38v1.01c-.34,0-.67-.06-1-.19-.33-.12-.62-.25-.85-.39l-.05-.05c.27,.15,.5,.33,.67,.53s.31,.43,.4,.69c.09,.25,.14,.53,.14,.83,0,.52-.11,.97-.33,1.35-.22,.38-.52,.66-.89,.86-.37,.2-.77,.3-1.2,.3Zm1.72,3.27v-.26c0-.42-.11-.72-.32-.9-.21-.19-.54-.28-.97-.28h-1.17c-.26,0-.48-.02-.67-.06-.19-.04-.35-.11-.48-.19s-.22-.19-.28-.32-.09-.27-.09-.42c0-.3,.09-.52,.27-.67s.4-.25,.67-.29,.52-.04,.76,0l.56,.13c-.42,.02-.75,.07-.98,.13-.23,.06-.35,.2-.35,.4,0,.12,.04,.21,.13,.29s.22,.11,.41,.11h1.22c.41,0,.78,.06,1.12,.17,.34,.11,.61,.31,.81,.58,.2,.27,.3,.64,.3,1.11v.49h-.94Zm-1.72-4.15c.26,0,.5-.06,.72-.19,.22-.13,.41-.31,.55-.55s.21-.54,.21-.89-.07-.65-.21-.9c-.14-.25-.32-.43-.55-.56-.23-.13-.47-.19-.73-.19s-.5,.06-.73,.19c-.23,.13-.41,.31-.55,.56-.14,.24-.21,.54-.21,.9s.07,.65,.21,.89,.32,.43,.55,.55c.23,.12,.47,.19,.73,.19Z" fill="#2f2e41"></path>
      <path d="M543.44,391.93c-.5,0-.97-.12-1.41-.36-.44-.24-.79-.59-1.06-1.05-.27-.46-.4-1-.4-1.62s.13-1.17,.4-1.62c.27-.46,.62-.81,1.06-1.06,.44-.25,.91-.38,1.41-.38s.97,.12,1.4,.38c.43,.25,.78,.6,1.05,1.06,.27,.46,.4,1,.4,1.62s-.13,1.17-.4,1.62c-.27,.46-.62,.81-1.05,1.05-.43,.24-.9,.36-1.4,.36Zm0-.88c.33,0,.64-.08,.93-.25,.29-.16,.53-.41,.71-.73s.28-.72,.28-1.18-.09-.85-.28-1.18-.42-.57-.71-.75c-.29-.17-.6-.26-.93-.26s-.64,.08-.93,.25-.53,.42-.72,.74-.28,.72-.28,1.19,.09,.86,.28,1.18,.42,.57,.72,.73c.3,.16,.61,.25,.94,.25Z" fill="#2f2e41"></path>
      <path d="M546.96,385.94h3.45v.88h-3.45v-.88Zm1.26-1.53h.94v7.39h-.94v-7.39Z" fill="#2f2e41"></path>
      <path d="M553.99,385.94h.9l.04,1.23v6.98h-.94v-8.21Zm2.93,5.98c-.43,0-.78-.1-1.06-.3-.27-.2-.49-.46-.64-.77-.15-.32-.26-.65-.32-1-.06-.35-.09-.67-.09-.97,0-.42,.03-.82,.09-1.18,.06-.37,.16-.69,.31-.97,.15-.28,.36-.5,.64-.66,.28-.16,.64-.24,1.07-.24,.47,0,.9,.13,1.28,.4,.38,.27,.69,.63,.92,1.09,.23,.46,.35,.99,.35,1.57s-.12,1.11-.35,1.57c-.23,.46-.54,.82-.93,1.08-.39,.26-.81,.39-1.26,.39Zm-.24-.89c.36,0,.68-.09,.96-.28,.28-.18,.49-.44,.65-.76,.16-.33,.24-.69,.24-1.11,0-.62-.16-1.14-.48-1.55-.32-.41-.77-.62-1.36-.62-.34,0-.65,.09-.92,.28s-.47,.44-.62,.76-.22,.7-.22,1.13c0,.39,.06,.75,.19,1.07,.13,.32,.32,.58,.58,.78s.59,.29,.99,.29Z" fill="#2f2e41"></path>
      <path d="M562.88,391.93c-.46,0-.89-.13-1.27-.39-.39-.26-.7-.62-.93-1.08-.23-.46-.35-.98-.35-1.57s.12-1.11,.35-1.57c.23-.46,.55-.83,.96-1.09,.4-.27,.85-.4,1.36-.4,.55,0,.96,.14,1.25,.42,.29,.28,.48,.65,.59,1.11,.11,.46,.16,.97,.16,1.54,0,.3-.03,.62-.09,.97-.06,.35-.17,.68-.32,1-.15,.32-.37,.58-.64,.77s-.63,.3-1.06,.3Zm.23-.89c.4,0,.73-.1,.99-.29,.26-.2,.46-.46,.58-.78,.12-.33,.19-.68,.19-1.07,0-.43-.06-.81-.19-1.13s-.32-.58-.59-.76c-.26-.18-.59-.28-.98-.28-.59,0-1.04,.21-1.36,.62-.32,.41-.48,.93-.48,1.55,0,.42,.08,.78,.24,1.11,.16,.32,.38,.58,.66,.76,.28,.18,.59,.28,.94,.28Zm1.76-5.09h.94v5.87h-.86c-.02-.28-.04-.52-.06-.7s-.02-.34-.02-.47v-4.69Z" fill="#2f2e41"></path>
      <path d="M567.06,389.92h.87c.02,.34,.15,.61,.38,.82,.23,.21,.57,.32,1,.32,.27,0,.48-.04,.63-.11s.26-.17,.33-.29c.07-.12,.11-.26,.11-.41,0-.18-.04-.32-.13-.43-.09-.11-.21-.19-.36-.26s-.33-.14-.52-.2c-.23-.09-.46-.18-.7-.28-.24-.1-.46-.22-.67-.35-.21-.14-.37-.3-.5-.5-.12-.2-.19-.44-.19-.72,0-.24,.05-.46,.14-.66s.23-.39,.41-.54c.18-.15,.38-.27,.62-.36,.24-.09,.5-.13,.79-.13,.39,0,.72,.08,.99,.23,.27,.16,.48,.38,.62,.66,.14,.29,.22,.62,.23,.99h-.81c-.05-.35-.17-.61-.33-.77s-.41-.24-.72-.24-.57,.07-.74,.21-.26,.33-.26,.56c0,.17,.06,.31,.19,.43s.29,.22,.49,.31,.41,.18,.64,.28c.23,.09,.45,.19,.66,.28,.21,.09,.4,.2,.56,.33s.29,.28,.39,.46c.1,.18,.15,.41,.15,.69,0,.33-.08,.62-.23,.87-.15,.25-.38,.45-.67,.59-.29,.14-.65,.21-1.07,.21-.38,0-.71-.05-.98-.15-.27-.1-.49-.23-.67-.39-.18-.16-.32-.33-.42-.51s-.16-.36-.19-.53-.04-.32-.02-.43Z" fill="#2f2e41"></path>
      <path d="M572.23,389.92h.87c.02,.34,.15,.61,.38,.82,.23,.21,.57,.32,1,.32,.27,0,.48-.04,.63-.11s.26-.17,.33-.29c.07-.12,.11-.26,.11-.41,0-.18-.04-.32-.13-.43-.09-.11-.21-.19-.36-.26s-.33-.14-.52-.2c-.23-.09-.46-.18-.7-.28-.24-.1-.46-.22-.67-.35-.21-.14-.37-.3-.5-.5-.12-.2-.19-.44-.19-.72,0-.24,.05-.46,.14-.66s.23-.39,.41-.54c.18-.15,.38-.27,.62-.36,.24-.09,.5-.13,.79-.13,.39,0,.72,.08,.99,.23,.27,.16,.48,.38,.62,.66,.14,.29,.22,.62,.23,.99h-.81c-.05-.35-.17-.61-.33-.77s-.41-.24-.72-.24-.57,.07-.74,.21-.26,.33-.26,.56c0,.17,.06,.31,.19,.43s.29,.22,.49,.31,.41,.18,.64,.28c.23,.09,.45,.19,.66,.28,.21,.09,.4,.2,.56,.33s.29,.28,.39,.46c.1,.18,.15,.41,.15,.69,0,.33-.08,.62-.23,.87-.15,.25-.38,.45-.67,.59-.29,.14-.65,.21-1.07,.21-.38,0-.71-.05-.98-.15-.27-.1-.49-.23-.67-.39-.18-.16-.32-.33-.42-.51s-.16-.36-.19-.53-.04-.32-.02-.43Z" fill="#2f2e41"></path>
      <path d="M583.46,390.95h-.23s1.37-5.01,1.37-5.01h1.02l-1.79,5.87h-.88l-1.74-5.14h.23l-1.74,5.14h-.88l-1.78-5.87h1.02l1.35,5h-.23s1.58-5,1.58-5h1.14l1.56,5.01Z" fill="#2f2e41"></path>
      <path d="M588.98,391.93c-.5,0-.97-.12-1.41-.36-.44-.24-.79-.59-1.06-1.05-.27-.46-.4-1-.4-1.62s.13-1.17,.4-1.62c.27-.46,.62-.81,1.06-1.06,.44-.25,.91-.38,1.41-.38s.97,.12,1.4,.38c.43,.25,.78,.6,1.05,1.06,.27,.46,.4,1,.4,1.62s-.13,1.17-.4,1.62c-.27,.46-.62,.81-1.05,1.05-.43,.24-.9,.36-1.4,.36Zm0-.88c.33,0,.64-.08,.93-.25,.29-.16,.53-.41,.71-.73s.28-.72,.28-1.18-.09-.85-.28-1.18-.42-.57-.71-.75c-.29-.17-.6-.26-.93-.26s-.64,.08-.93,.25-.53,.42-.72,.74-.28,.72-.28,1.19,.09,.86,.28,1.18,.42,.57,.72,.73c.3,.16,.61,.25,.94,.25Z" fill="#2f2e41"></path>
      <path d="M593.03,385.94h.94v5.87h-.94v-5.87Zm2.82,.88c-.4,0-.73,.1-1,.3-.27,.2-.48,.44-.63,.73-.15,.29-.25,.56-.3,.83v-.68c-.01-.07,0-.19,.04-.35s.09-.35,.18-.56,.2-.41,.35-.6c.14-.19,.33-.35,.56-.47,.23-.12,.5-.19,.82-.19v1Z" fill="#2f2e41"></path>
      <path d="M599.12,391.93c-.47,0-.9-.13-1.29-.39-.39-.26-.69-.62-.92-1.08-.23-.46-.34-.98-.34-1.57s.11-1.11,.33-1.57c.22-.46,.52-.83,.9-1.09s.82-.4,1.31-.4c.44,0,.8,.08,1.07,.24s.49,.38,.64,.66c.15,.28,.25,.61,.31,.97,.06,.37,.09,.76,.09,1.18,0,.3-.03,.62-.09,.97-.06,.35-.17,.68-.32,1-.15,.32-.37,.58-.64,.77s-.63,.3-1.06,.3Zm.23-.89c.4,0,.73-.1,.99-.29,.26-.2,.46-.46,.58-.78,.12-.33,.19-.68,.19-1.07,0-.43-.06-.81-.19-1.13s-.32-.58-.59-.76c-.26-.18-.59-.28-.98-.28-.59,0-1.04,.21-1.36,.62-.32,.41-.48,.93-.48,1.55,0,.42,.08,.78,.24,1.11,.16,.32,.38,.58,.66,.76,.28,.18,.59,.28,.94,.28Zm1.76-7.44h.94v8.21h-.86c-.02-.17-.03-.38-.05-.61-.02-.23-.03-.42-.03-.56v-7.04Z" fill="#2f2e41"></path>
      <path d="M605.38,389.45v-2.03h.28c.63,0,1.09-.14,1.4-.42s.46-.66,.46-1.16c0-.46-.14-.83-.41-1.09-.27-.27-.62-.4-1.04-.4-.27,0-.52,.06-.74,.18s-.39,.28-.51,.49c-.12,.21-.18,.46-.18,.75h-.94c0-.26,.04-.5,.11-.73,.07-.23,.18-.44,.33-.63,.15-.19,.32-.36,.52-.49s.42-.24,.67-.32,.51-.12,.8-.12c.36,0,.68,.06,.97,.18s.53,.28,.73,.5c.2,.22,.36,.47,.47,.75,.11,.29,.16,.6,.16,.93,0,.47-.09,.87-.28,1.2-.19,.33-.44,.59-.77,.77-.33,.19-.69,.3-1.1,.35v1.29h-.94Zm-.14,2.36v-1.15h1.21v1.15h-1.21Z" fill="#2f2e41"></path>
    </g>
    <g>
      <path d="M375.44,150.99h1.96c.05,.76,.28,1.44,.68,2.04,.4,.6,.95,1.07,1.64,1.41,.7,.34,1.52,.52,2.46,.52,.82,0,1.5-.12,2.05-.37,.55-.25,.97-.58,1.25-1.02,.28-.43,.42-.94,.42-1.52s-.14-1.08-.43-1.44-.71-.67-1.25-.92c-.54-.25-1.19-.5-1.93-.73-.71-.22-1.42-.47-2.15-.76-.73-.29-1.4-.64-2.03-1.06s-1.13-.92-1.51-1.51-.57-1.3-.57-2.13,.22-1.58,.67-2.3c.44-.72,1.1-1.29,1.96-1.74,.86-.44,1.9-.67,3.11-.67,1.9,0,3.33,.52,4.27,1.55,.94,1.03,1.39,2.4,1.36,4.11h-1.96c-.04-1.29-.4-2.21-1.09-2.77-.69-.56-1.59-.84-2.69-.84-.92,0-1.73,.21-2.42,.64s-1.03,1.09-1.03,2c0,.4,.08,.75,.23,1.05s.41,.58,.76,.83c.35,.25,.83,.5,1.44,.75,.61,.24,1.35,.51,2.24,.8,.58,.18,1.17,.4,1.78,.65,.61,.25,1.17,.57,1.69,.95,.52,.38,.93,.87,1.25,1.46s.48,1.33,.48,2.21-.2,1.65-.61,2.38c-.41,.73-1.04,1.33-1.9,1.78-.86,.45-1.97,.68-3.33,.68-1.16,0-2.15-.16-2.98-.48-.82-.32-1.5-.73-2.03-1.24-.53-.51-.93-1.04-1.21-1.59-.28-.55-.47-1.07-.56-1.56-.09-.49-.1-.87-.03-1.14Z" fill="#2f2e41"></path>
      <path d="M393.63,137.69v2.64h-2.83v-2.64h2.83Zm-2.5,5.44h2.17v13.59h-2.17v-13.59Z" fill="#2f2e41"></path>
      <path d="M401.89,154.58c-.96,0-1.87-.23-2.73-.69-.86-.46-1.56-1.13-2.09-2s-.8-1.91-.8-3.13,.26-2.26,.79-3.14,1.21-1.56,2.07-2.04c.85-.48,1.78-.72,2.77-.72,.31,0,.6,.02,.88,.07,.28,.04,.55,.11,.8,.2h5.52v2.34c-.78,0-1.55-.14-2.32-.43s-1.43-.59-1.97-.9l-.11-.11c.63,.34,1.16,.75,1.56,1.22,.41,.47,.72,1,.92,1.59,.21,.59,.31,1.23,.31,1.92,0,1.21-.26,2.26-.78,3.13s-1.2,1.54-2.05,2c-.85,.46-1.78,.69-2.77,.69Zm4,7.58v-.6c0-.96-.25-1.66-.75-2.09-.5-.44-1.25-.65-2.24-.65h-2.72c-.6,0-1.12-.05-1.56-.15-.44-.1-.81-.25-1.1-.45s-.51-.44-.65-.73c-.14-.29-.22-.62-.22-.98,0-.69,.21-1.21,.62-1.56s.93-.58,1.55-.67c.62-.09,1.21-.09,1.77,0l1.3,.3c-.98,.05-1.74,.15-2.27,.3-.54,.15-.8,.45-.8,.92,0,.27,.1,.49,.31,.67,.21,.17,.52,.26,.94,.26h2.83c.94,0,1.8,.13,2.58,.39,.78,.26,1.4,.71,1.88,1.33,.47,.62,.71,1.48,.71,2.57v1.14h-2.17Zm-4-9.62c.6,0,1.16-.14,1.67-.43s.94-.72,1.26-1.28c.33-.56,.49-1.25,.49-2.07s-.16-1.51-.48-2.08c-.32-.57-.74-1.01-1.26-1.3s-1.09-.45-1.69-.45-1.16,.15-1.69,.45-.95,.73-1.28,1.29c-.33,.56-.49,1.26-.49,2.09s.16,1.5,.49,2.07c.33,.56,.75,.99,1.28,1.28s1.09,.43,1.69,.43Z" fill="#2f2e41"></path>
      <path d="M411.65,143.13h2.17v13.59h-2.17v-13.59Zm6.85-.27c.72,0,1.38,.11,1.96,.33,.58,.22,1.07,.54,1.47,.95,.4,.42,.71,.92,.92,1.51,.22,.59,.33,1.26,.33,2v9.08h-2.17v-8.54c0-1.05-.24-1.84-.73-2.37-.49-.53-1.22-.79-2.2-.79-.74,0-1.43,.19-2.07,.57-.63,.38-1.16,.9-1.56,1.56-.41,.66-.66,1.43-.75,2.3l-.03-1.58c.09-.76,.28-1.45,.56-2.07,.28-.62,.63-1.15,1.06-1.59,.42-.44,.92-.78,1.47-1.02s1.14-.35,1.75-.35Z" fill="#2f2e41"></path>
      <path d="M433.37,139.05h2.17v17.67h-2.17v-17.67Z" fill="#2f2e41"></path>
      <path d="M440.03,143.13h2.17v13.59h-2.17v-13.59Zm6.85-.27c.72,0,1.38,.11,1.96,.33,.58,.22,1.07,.54,1.47,.95,.4,.42,.71,.92,.92,1.51,.22,.59,.33,1.26,.33,2v9.08h-2.17v-8.54c0-1.05-.24-1.84-.73-2.37-.49-.53-1.22-.79-2.2-.79-.74,0-1.43,.19-2.07,.57-.63,.38-1.16,.9-1.56,1.56-.41,.66-.66,1.43-.75,2.3l-.03-1.58c.09-.76,.28-1.45,.56-2.07,.28-.62,.63-1.15,1.06-1.59,.42-.44,.92-.78,1.47-1.02s1.14-.35,1.75-.35Z" fill="#2f2e41"></path>
    </g>
    <g>
      <g>
        <path d="M491.81,520.94c-.7,0-1.33-.16-1.89-.49-.57-.33-1.02-.78-1.36-1.37-.34-.59-.5-1.28-.5-2.08s.17-1.49,.5-2.08c.34-.59,.79-1.05,1.36-1.37s1.2-.48,1.89-.48,1.33,.16,1.9,.48c.57,.32,1.02,.78,1.35,1.37,.34,.59,.5,1.28,.5,2.08s-.17,1.49-.5,2.08c-.34,.59-.79,1.04-1.35,1.37-.57,.32-1.2,.49-1.9,.49Zm0-.88c.53,0,1.01-.12,1.43-.35,.42-.23,.76-.57,1.01-1.03,.25-.45,.38-1.01,.38-1.68s-.12-1.22-.38-1.67c-.25-.45-.59-.79-1.01-1.03-.42-.23-.9-.35-1.43-.35s-1,.12-1.42,.35c-.43,.23-.76,.58-1.02,1.03-.25,.45-.38,1.01-.38,1.67s.12,1.22,.38,1.68c.25,.45,.59,.8,1.02,1.03,.43,.23,.9,.35,1.42,.35Z" fill="#2f2e41"></path>
        <path d="M496.92,514.96h.94v5.87h-.94v-5.87Zm2.82,.88c-.4,0-.73,.1-1,.3-.27,.2-.48,.44-.63,.73-.15,.29-.25,.56-.3,.83v-.68c-.01-.07,0-.19,.04-.35s.09-.35,.18-.56,.2-.41,.35-.6c.14-.19,.33-.35,.56-.47,.23-.12,.5-.19,.82-.19v1Z" fill="#2f2e41"></path>
      </g>
      <path d="M477.11,518.74h-100.78c-.28,0-.5-.22-.5-.5s.22-.5,.5-.5h100.78c.28,0,.5,.22,.5,.5s-.22,.5-.5,.5Z" fill="#2f2e41"></path>
      <path d="M611.46,518.74h-98.98c-.28,0-.5-.22-.5-.5s.22-.5,.5-.5h98.98c.28,0,.5,.22,.5,.5s-.22,.5-.5,.5Z" fill="#2f2e41"></path>
    </g>
    <g>
      <path d="M383.36,90.44h-10.03c-.55,0-1-.45-1-1s.45-1,1-1h10.03c.55,0,1,.45,1,1s-.45,1-1,1Z" fill="#2f2e41"></path>
      <path d="M380.31,93.03c-.29,0-.59-.13-.79-.38-.34-.43-.27-1.06,.16-1.41l2.34-1.85-2.37-2.08c-.42-.36-.46-1-.09-1.41,.36-.42,1-.46,1.41-.09l2.9,2.54c.32,.28,.49,.68,.48,1.1,0,.42-.21,.81-.54,1.07l-2.89,2.29c-.18,.15-.4,.22-.62,.22Zm2.25-3.17h0Z" fill="#2f2e41"></path>
    </g>
    <g opacity=".3">
      <rect x="373.33" y="275.86" width="235.13" height="42.16" rx="21.08" ry="21.08" fill="#eaebeb"></rect>
    </g>
    <g>
      <path d="M405.35,297.76v-4.69h.94v4.69c0,.43-.05,.81-.15,1.14-.1,.33-.25,.62-.43,.86s-.4,.44-.66,.59c-.26,.15-.54,.27-.86,.34-.32,.07-.66,.11-1.01,.11s-.71-.04-1.03-.11c-.32-.07-.61-.19-.87-.34-.26-.15-.49-.35-.67-.59s-.33-.53-.43-.86c-.1-.33-.15-.71-.15-1.14v-4.69h.94v4.69c0,.59,.1,1.04,.31,1.35,.2,.31,.47,.53,.81,.65,.34,.12,.7,.18,1.1,.18s.75-.06,1.08-.18c.33-.12,.59-.33,.8-.65,.2-.31,.31-.76,.31-1.35Z" fill="#d0d2d3"></path>
      <path d="M407.71,298.8h.87c.02,.34,.15,.61,.38,.82,.23,.21,.57,.32,1,.32,.27,0,.48-.04,.63-.11s.26-.17,.33-.29c.07-.12,.11-.26,.11-.41,0-.18-.04-.32-.13-.43-.09-.11-.21-.19-.36-.26s-.33-.14-.52-.2c-.23-.09-.46-.18-.7-.28-.24-.1-.46-.22-.67-.35-.21-.14-.37-.3-.5-.5-.12-.2-.19-.44-.19-.72,0-.24,.05-.46,.14-.66s.23-.39,.41-.54c.18-.15,.38-.27,.62-.36,.24-.09,.5-.13,.79-.13,.39,0,.72,.08,.99,.23,.27,.16,.48,.38,.62,.66,.14,.29,.22,.62,.23,.99h-.81c-.05-.35-.17-.61-.33-.77s-.41-.24-.72-.24-.57,.07-.74,.21-.26,.33-.26,.56c0,.17,.06,.31,.19,.43s.29,.22,.49,.31,.41,.18,.64,.28c.23,.09,.45,.19,.66,.28,.21,.09,.4,.2,.56,.33s.29,.28,.39,.46c.1,.18,.15,.41,.15,.69,0,.33-.08,.62-.23,.87-.15,.25-.38,.45-.67,.59-.29,.14-.65,.21-1.07,.21-.38,0-.71-.05-.98-.15-.27-.1-.49-.23-.67-.39-.18-.16-.32-.33-.42-.51s-.16-.36-.19-.53-.04-.32-.02-.43Z" fill="#d0d2d3"></path>
      <path d="M417.32,298.8h.88c-.06,.38-.2,.73-.42,1.03-.22,.3-.5,.54-.84,.72-.35,.18-.75,.26-1.2,.26-.55,0-1.04-.13-1.48-.39-.44-.26-.78-.62-1.04-1.08-.25-.46-.38-.98-.38-1.57s.12-1.11,.37-1.57c.25-.46,.58-.83,1.01-1.09,.43-.27,.92-.4,1.46-.4,.57,0,1.05,.13,1.45,.38,.39,.25,.69,.63,.88,1.11,.19,.49,.27,1.09,.23,1.8h-4.46c.04,.38,.14,.72,.32,1.01s.4,.51,.68,.67,.6,.24,.96,.24c.4,0,.74-.1,1.01-.31,.28-.21,.47-.48,.57-.82Zm-1.61-3.21c-.49,0-.89,.14-1.22,.42-.33,.28-.55,.67-.66,1.15h3.44c-.03-.52-.2-.91-.5-1.17-.3-.27-.65-.4-1.06-.4Z" fill="#d0d2d3"></path>
      <path d="M419.44,294.83h.94v5.87h-.94v-5.87Zm2.82,.88c-.4,0-.73,.1-1,.3-.27,.2-.48,.44-.63,.73-.15,.29-.25,.56-.3,.83v-.68c-.01-.07,0-.19,.04-.35s.09-.35,.18-.56,.2-.41,.35-.6c.14-.19,.33-.35,.56-.47,.23-.12,.5-.19,.82-.19v1Z" fill="#d0d2d3"></path>
      <path d="M423.31,294.83h.94v5.87h-.94v-5.87Zm2.96-.12c.31,0,.59,.05,.84,.14,.25,.09,.46,.23,.63,.41,.17,.18,.3,.4,.4,.65s.14,.54,.14,.86v3.92h-.94v-3.68c0-.45-.11-.79-.32-1.02-.21-.23-.53-.34-.95-.34-.32,0-.62,.08-.89,.25-.27,.16-.5,.39-.67,.67-.18,.29-.28,.62-.32,.99v-.68c.03-.33,.11-.62,.23-.89,.12-.27,.27-.49,.46-.69,.18-.19,.39-.34,.63-.44,.24-.1,.49-.15,.76-.15Z" fill="#d0d2d3"></path>
      <path d="M432.03,300.81c-.46,0-.89-.13-1.27-.39-.39-.26-.7-.62-.93-1.08-.23-.46-.35-.98-.35-1.57s.12-1.11,.35-1.57c.23-.46,.55-.83,.96-1.09,.4-.27,.85-.4,1.36-.4,.55,0,.96,.14,1.25,.42,.29,.28,.48,.65,.59,1.11,.11,.46,.16,.97,.16,1.54,0,.3-.03,.62-.09,.97-.06,.35-.17,.68-.32,1-.15,.32-.37,.58-.64,.77s-.63,.3-1.06,.3Zm.23-.89c.4,0,.73-.1,.99-.29,.26-.2,.46-.46,.58-.78,.12-.33,.19-.68,.19-1.07,0-.43-.06-.81-.19-1.13s-.32-.58-.59-.76c-.26-.18-.59-.28-.98-.28-.59,0-1.04,.21-1.36,.62-.32,.41-.48,.93-.48,1.55,0,.42,.08,.78,.24,1.11,.16,.32,.38,.58,.66,.76,.28,.18,.59,.28,.94,.28Zm1.76-5.09h.94v5.87h-.86c-.02-.28-.04-.52-.06-.7s-.02-.34-.02-.47v-4.69Z" fill="#d0d2d3"></path>
      <path d="M436.49,294.83h.94v5.87h-.94v-5.87Zm2.96-.12c.31,0,.59,.05,.84,.14,.25,.09,.46,.23,.63,.41,.17,.18,.3,.4,.4,.65s.14,.54,.14,.86v3.92h-.94v-3.68c0-.45-.11-.79-.32-1.02-.21-.23-.53-.34-.95-.34-.32,0-.62,.08-.89,.25-.27,.16-.5,.39-.67,.67-.18,.29-.28,.62-.32,.99v-.68c.03-.33,.11-.62,.23-.89,.12-.27,.27-.49,.46-.69,.18-.19,.39-.34,.63-.44,.24-.1,.49-.15,.76-.15Zm3.94,0c.31,0,.59,.05,.84,.14,.25,.09,.46,.23,.63,.41,.17,.18,.31,.4,.4,.65s.14,.54,.14,.86v3.92h-.94v-3.68c0-.45-.11-.79-.32-1.02-.21-.23-.53-.34-.95-.34-.32,0-.62,.08-.89,.25-.27,.16-.5,.39-.67,.67-.18,.29-.28,.62-.32,.99v-.68c.03-.33,.11-.62,.23-.89,.12-.27,.27-.49,.46-.69,.18-.19,.39-.34,.63-.44,.24-.1,.49-.15,.76-.15Z" fill="#d0d2d3"></path>
      <path d="M451.09,298.8h.88c-.06,.38-.2,.73-.42,1.03-.22,.3-.5,.54-.84,.72-.35,.18-.75,.26-1.2,.26-.55,0-1.04-.13-1.48-.39-.44-.26-.78-.62-1.04-1.08-.25-.46-.38-.98-.38-1.57s.12-1.11,.37-1.57c.25-.46,.58-.83,1.01-1.09,.43-.27,.92-.4,1.46-.4,.57,0,1.05,.13,1.45,.38,.39,.25,.69,.63,.88,1.11,.19,.49,.27,1.09,.23,1.8h-4.46c.04,.38,.14,.72,.32,1.01s.4,.51,.68,.67,.6,.24,.96,.24c.4,0,.74-.1,1.01-.31,.28-.21,.47-.48,.57-.82Zm-1.61-3.21c-.49,0-.89,.14-1.22,.42-.33,.28-.55,.67-.66,1.15h3.44c-.03-.52-.2-.91-.5-1.17-.3-.27-.65-.4-1.06-.4Z" fill="#d0d2d3"></path>
    </g>
    <g opacity=".3">
      <rect x="373.33" y="331.41" width="235.13" height="42.16" rx="21.08" ry="21.08" fill="#eaebeb"></rect>
    </g>
    <g>
      <rect x="376.33" y="438.95" width="235.13" height="42.16" rx="21.08" ry="21.08" fill="#0071f2"></rect>
      <path d="M590.38,481.61h-192.97c-11.9,0-21.58-9.68-21.58-21.58s9.68-21.58,21.58-21.58h192.97c11.9,0,21.58,9.68,21.58,21.58s-9.68,21.58-21.58,21.58Zm-192.97-42.16c-11.35,0-20.58,9.23-20.58,20.58s9.23,20.58,20.58,20.58h192.97c11.35,0,20.58-9.23,20.58-20.58s-9.23-20.58-20.58-20.58h-192.97Z" fill="#2f2e41"></path>
    </g>
    <g>
      <path d="M405.35,353.31v-4.69h.94v4.69c0,.43-.05,.81-.15,1.14-.1,.33-.25,.62-.43,.86s-.4,.44-.66,.59c-.26,.15-.54,.27-.86,.34-.32,.07-.66,.11-1.01,.11s-.71-.04-1.03-.11c-.32-.07-.61-.19-.87-.34-.26-.15-.49-.35-.67-.59s-.33-.53-.43-.86c-.1-.33-.15-.71-.15-1.14v-4.69h.94v4.69c0,.59,.1,1.04,.31,1.35,.2,.31,.47,.53,.81,.65,.34,.12,.7,.18,1.1,.18s.75-.06,1.08-.18c.33-.12,.59-.33,.8-.65,.2-.31,.31-.76,.31-1.35Z" fill="#d0d2d3"></path>
      <path d="M407.71,354.35h.87c.02,.34,.15,.61,.38,.82,.23,.21,.57,.32,1,.32,.27,0,.48-.04,.63-.11s.26-.17,.33-.29c.07-.12,.11-.26,.11-.41,0-.18-.04-.32-.13-.43-.09-.11-.21-.19-.36-.26s-.33-.14-.52-.2c-.23-.09-.46-.18-.7-.28-.24-.1-.46-.22-.67-.35-.21-.14-.37-.3-.5-.5-.12-.2-.19-.44-.19-.72,0-.24,.05-.46,.14-.66s.23-.39,.41-.54c.18-.15,.38-.27,.62-.36,.24-.09,.5-.13,.79-.13,.39,0,.72,.08,.99,.23,.27,.16,.48,.38,.62,.66,.14,.29,.22,.62,.23,.99h-.81c-.05-.35-.17-.61-.33-.77s-.41-.24-.72-.24-.57,.07-.74,.21-.26,.33-.26,.56c0,.17,.06,.31,.19,.43s.29,.22,.49,.31,.41,.18,.64,.28c.23,.09,.45,.19,.66,.28,.21,.09,.4,.2,.56,.33s.29,.28,.39,.46c.1,.18,.15,.41,.15,.69,0,.33-.08,.62-.23,.87-.15,.25-.38,.45-.67,.59-.29,.14-.65,.21-1.07,.21-.38,0-.71-.05-.98-.15-.27-.1-.49-.23-.67-.39-.18-.16-.32-.33-.42-.51s-.16-.36-.19-.53-.04-.32-.02-.43Z" fill="#d0d2d3"></path>
      <path d="M417.32,354.35h.88c-.06,.38-.2,.73-.42,1.03-.22,.3-.5,.54-.84,.72-.35,.18-.75,.26-1.2,.26-.55,0-1.04-.13-1.48-.39-.44-.26-.78-.62-1.04-1.08-.25-.46-.38-.98-.38-1.57s.12-1.11,.37-1.57c.25-.46,.58-.83,1.01-1.09,.43-.27,.92-.4,1.46-.4,.57,0,1.05,.13,1.45,.38,.39,.25,.69,.63,.88,1.11,.19,.49,.27,1.09,.23,1.8h-4.46c.04,.38,.14,.72,.32,1.01s.4,.51,.68,.67,.6,.24,.96,.24c.4,0,.74-.1,1.01-.31,.28-.21,.47-.48,.57-.82Zm-1.61-3.21c-.49,0-.89,.14-1.22,.42-.33,.28-.55,.67-.66,1.15h3.44c-.03-.52-.2-.91-.5-1.17-.3-.27-.65-.4-1.06-.4Z" fill="#d0d2d3"></path>
      <path d="M419.44,350.38h.94v5.87h-.94v-5.87Zm2.82,.88c-.4,0-.73,.1-1,.3-.27,.2-.48,.44-.63,.73-.15,.29-.25,.56-.3,.83v-.68c-.01-.07,0-.19,.04-.35s.09-.35,.18-.56,.2-.41,.35-.6c.14-.19,.33-.35,.56-.47,.23-.12,.5-.19,.82-.19v1Z" fill="#d0d2d3"></path>
      <path d="M423.31,350.38h.94v5.87h-.94v-5.87Zm2.96-.12c.31,0,.59,.05,.84,.14,.25,.09,.46,.23,.63,.41,.17,.18,.3,.4,.4,.65s.14,.54,.14,.86v3.92h-.94v-3.68c0-.45-.11-.79-.32-1.02-.21-.23-.53-.34-.95-.34-.32,0-.62,.08-.89,.25-.27,.16-.5,.39-.67,.67-.18,.29-.28,.62-.32,.99v-.68c.03-.33,.11-.62,.23-.89,.12-.27,.27-.49,.46-.69,.18-.19,.39-.34,.63-.44,.24-.1,.49-.15,.76-.15Z" fill="#d0d2d3"></path>
      <path d="M432.03,356.36c-.46,0-.89-.13-1.27-.39-.39-.26-.7-.62-.93-1.08-.23-.46-.35-.98-.35-1.57s.12-1.11,.35-1.57c.23-.46,.55-.83,.96-1.09,.4-.27,.85-.4,1.36-.4,.55,0,.96,.14,1.25,.42,.29,.28,.48,.65,.59,1.11,.11,.46,.16,.97,.16,1.54,0,.3-.03,.62-.09,.97-.06,.35-.17,.68-.32,1-.15,.32-.37,.58-.64,.77s-.63,.3-1.06,.3Zm.23-.89c.4,0,.73-.1,.99-.29,.26-.2,.46-.46,.58-.78,.12-.33,.19-.68,.19-1.07,0-.43-.06-.81-.19-1.13s-.32-.58-.59-.76c-.26-.18-.59-.28-.98-.28-.59,0-1.04,.21-1.36,.62-.32,.41-.48,.93-.48,1.55,0,.42,.08,.78,.24,1.11,.16,.32,.38,.58,.66,.76,.28,.18,.59,.28,.94,.28Zm1.76-5.09h.94v5.87h-.86c-.02-.28-.04-.52-.06-.7s-.02-.34-.02-.47v-4.69Z" fill="#d0d2d3"></path>
      <path d="M436.49,350.38h.94v5.87h-.94v-5.87Zm2.96-.12c.31,0,.59,.05,.84,.14,.25,.09,.46,.23,.63,.41,.17,.18,.3,.4,.4,.65s.14,.54,.14,.86v3.92h-.94v-3.68c0-.45-.11-.79-.32-1.02-.21-.23-.53-.34-.95-.34-.32,0-.62,.08-.89,.25-.27,.16-.5,.39-.67,.67-.18,.29-.28,.62-.32,.99v-.68c.03-.33,.11-.62,.23-.89,.12-.27,.27-.49,.46-.69,.18-.19,.39-.34,.63-.44,.24-.1,.49-.15,.76-.15Zm3.94,0c.31,0,.59,.05,.84,.14,.25,.09,.46,.23,.63,.41,.17,.18,.31,.4,.4,.65s.14,.54,.14,.86v3.92h-.94v-3.68c0-.45-.11-.79-.32-1.02-.21-.23-.53-.34-.95-.34-.32,0-.62,.08-.89,.25-.27,.16-.5,.39-.67,.67-.18,.29-.28,.62-.32,.99v-.68c.03-.33,.11-.62,.23-.89,.12-.27,.27-.49,.46-.69,.18-.19,.39-.34,.63-.44,.24-.1,.49-.15,.76-.15Z" fill="#d0d2d3"></path>
      <path d="M451.09,354.35h.88c-.06,.38-.2,.73-.42,1.03-.22,.3-.5,.54-.84,.72-.35,.18-.75,.26-1.2,.26-.55,0-1.04-.13-1.48-.39-.44-.26-.78-.62-1.04-1.08-.25-.46-.38-.98-.38-1.57s.12-1.11,.37-1.57c.25-.46,.58-.83,1.01-1.09,.43-.27,.92-.4,1.46-.4,.57,0,1.05,.13,1.45,.38,.39,.25,.69,.63,.88,1.11,.19,.49,.27,1.09,.23,1.8h-4.46c.04,.38,.14,.72,.32,1.01s.4,.51,.68,.67,.6,.24,.96,.24c.4,0,.74-.1,1.01-.31,.28-.21,.47-.48,.57-.82Zm-1.61-3.21c-.49,0-.89,.14-1.22,.42-.33,.28-.55,.67-.66,1.15h3.44c-.03-.52-.2-.91-.5-1.17-.3-.27-.65-.4-1.06-.4Z" fill="#d0d2d3"></path>
    </g>
    <g>
      <path d="M471.71,460.65h1.14c.03,.44,.16,.84,.4,1.19,.23,.35,.55,.62,.96,.82s.89,.3,1.44,.3c.48,0,.87-.07,1.2-.21,.32-.14,.57-.34,.73-.59,.16-.25,.25-.55,.25-.89s-.08-.63-.25-.84c-.17-.21-.41-.39-.73-.54-.32-.15-.69-.29-1.13-.43-.41-.13-.83-.28-1.25-.44s-.82-.38-1.18-.62c-.36-.24-.66-.54-.88-.88-.22-.34-.33-.76-.33-1.25s.13-.92,.39-1.34c.26-.42,.64-.76,1.14-1.01,.5-.26,1.11-.39,1.82-.39,1.11,0,1.94,.3,2.49,.9s.81,1.4,.79,2.39h-1.14c-.02-.75-.23-1.29-.63-1.62-.4-.33-.93-.49-1.57-.49-.54,0-1.01,.12-1.41,.37-.4,.25-.6,.64-.6,1.17,0,.23,.04,.44,.13,.61s.24,.34,.44,.48c.21,.15,.49,.29,.84,.44s.79,.3,1.31,.47c.34,.11,.68,.23,1.04,.38,.35,.15,.68,.33,.98,.56,.3,.22,.54,.5,.73,.85,.18,.34,.28,.77,.28,1.29s-.12,.96-.36,1.39c-.24,.43-.61,.77-1.11,1.04-.5,.26-1.15,.4-1.94,.4-.68,0-1.25-.09-1.74-.28s-.88-.42-1.18-.72c-.31-.3-.54-.6-.71-.93-.16-.32-.27-.63-.33-.91-.05-.29-.06-.51-.02-.67Z" fill="#f0f1f1"></path>
      <path d="M482.32,452.89v1.54h-1.65v-1.54h1.65Zm-1.46,3.17h1.27v7.93h-1.27v-7.93Z" fill="#f0f1f1"></path>
      <path d="M487.14,462.74c-.56,0-1.09-.13-1.59-.4s-.91-.66-1.22-1.17c-.31-.51-.47-1.12-.47-1.82s.15-1.32,.46-1.83,.71-.91,1.21-1.19,1.04-.42,1.62-.42c.18,0,.35,.01,.52,.04s.32,.07,.47,.12h3.22v1.36c-.45,0-.91-.08-1.36-.25s-.83-.34-1.15-.52l-.06-.06c.37,.2,.67,.44,.91,.71,.24,.28,.42,.58,.54,.93,.12,.34,.18,.72,.18,1.12,0,.71-.15,1.32-.45,1.82-.3,.51-.7,.9-1.2,1.17s-1.04,.4-1.62,.4Zm2.33,4.42v-.35c0-.56-.15-.97-.44-1.22-.29-.25-.73-.38-1.31-.38h-1.59c-.35,0-.65-.03-.91-.09-.26-.06-.47-.15-.64-.26-.17-.12-.3-.26-.38-.43-.08-.17-.13-.36-.13-.57,0-.4,.12-.71,.37-.91,.24-.21,.54-.33,.9-.39s.7-.05,1.03,0l.76,.17c-.57,.03-1.01,.09-1.32,.17s-.47,.26-.47,.54c0,.16,.06,.29,.18,.39,.12,.1,.3,.15,.55,.15h1.65c.55,0,1.05,.08,1.51,.23,.45,.15,.82,.41,1.09,.78,.27,.37,.41,.86,.41,1.5v.67h-1.27Zm-2.33-5.61c.35,0,.67-.08,.98-.25,.3-.17,.55-.42,.74-.75,.19-.33,.29-.73,.29-1.21s-.09-.88-.28-1.21c-.19-.33-.43-.59-.74-.76-.31-.17-.63-.26-.98-.26s-.68,.09-.98,.26c-.31,.17-.55,.42-.75,.75s-.29,.73-.29,1.22,.09,.88,.29,1.21c.19,.33,.44,.58,.75,.75,.31,.17,.63,.25,.98,.25Z" fill="#f0f1f1"></path>
      <path d="M492.83,456.07h1.27v7.93h-1.27v-7.93Zm4-.16c.42,0,.8,.06,1.14,.19,.34,.13,.62,.31,.86,.56,.23,.24,.41,.54,.54,.88s.19,.73,.19,1.17v5.3h-1.27v-4.98c0-.61-.14-1.07-.43-1.38-.29-.31-.71-.46-1.28-.46-.43,0-.84,.11-1.21,.33-.37,.22-.67,.53-.91,.91-.24,.39-.38,.83-.44,1.34l-.02-.92c.05-.44,.16-.85,.33-1.21,.16-.36,.37-.67,.62-.93,.25-.26,.53-.46,.86-.59,.32-.14,.66-.21,1.02-.21Z" fill="#f0f1f1"></path>
      <path d="M505.5,453.69h1.27v10.31h-1.27v-10.31Z" fill="#f0f1f1"></path>
      <path d="M509.39,456.07h1.27v7.93h-1.27v-7.93Zm4-.16c.42,0,.8,.06,1.14,.19,.34,.13,.62,.31,.86,.56,.23,.24,.41,.54,.54,.88s.19,.73,.19,1.17v5.3h-1.27v-4.98c0-.61-.14-1.07-.43-1.38-.29-.31-.71-.46-1.28-.46-.43,0-.84,.11-1.21,.33-.37,.22-.67,.53-.91,.91-.24,.39-.38,.83-.44,1.34l-.02-.92c.05-.44,.16-.85,.33-1.21,.16-.36,.37-.67,.62-.93,.25-.26,.53-.46,.86-.59,.32-.14,.66-.21,1.02-.21Z" fill="#f0f1f1"></path>
    </g>
    <g>
      <rect x="370.49" y="546.49" width="235.13" height="42.16" rx="21.08" ry="21.08" fill="#0071f2"></rect>
      <path d="M584.54,589.15h-192.97c-11.9,0-21.58-9.68-21.58-21.58s9.68-21.58,21.58-21.58h192.97c11.9,0,21.58,9.68,21.58,21.58s-9.68,21.58-21.58,21.58Zm-192.97-42.16c-11.35,0-20.58,9.23-20.58,20.58s9.23,20.58,20.58,20.58h192.97c11.35,0,20.58-9.23,20.58-20.58s-9.23-20.58-20.58-20.58h-192.97Z" fill="#2f2e41"></path>
    </g>
    <g>
      <path d="M400.04,568.19h1.14c.03,.44,.16,.84,.4,1.19,.23,.35,.55,.62,.96,.82s.89,.3,1.44,.3c.48,0,.87-.07,1.2-.21,.32-.14,.57-.34,.73-.59,.16-.25,.25-.55,.25-.89s-.08-.63-.25-.84c-.17-.21-.41-.39-.73-.54-.32-.15-.69-.29-1.13-.43-.41-.13-.83-.28-1.25-.44s-.82-.38-1.18-.62c-.36-.24-.66-.54-.88-.88-.22-.34-.33-.76-.33-1.25s.13-.92,.39-1.34c.26-.42,.64-.76,1.14-1.01,.5-.26,1.11-.39,1.82-.39,1.11,0,1.94,.3,2.49,.9s.81,1.4,.79,2.39h-1.14c-.02-.75-.23-1.29-.63-1.62-.4-.33-.93-.49-1.57-.49-.54,0-1.01,.12-1.41,.37-.4,.25-.6,.64-.6,1.17,0,.23,.04,.44,.13,.61s.24,.34,.44,.48c.21,.15,.49,.29,.84,.44s.79,.3,1.31,.47c.34,.11,.68,.23,1.04,.38,.35,.15,.68,.33,.98,.56,.3,.22,.54,.5,.73,.85,.18,.34,.28,.77,.28,1.29s-.12,.96-.36,1.39c-.24,.43-.61,.77-1.11,1.04-.5,.26-1.15,.4-1.94,.4-.68,0-1.25-.09-1.74-.28s-.88-.42-1.18-.72c-.31-.3-.54-.6-.71-.93-.16-.32-.27-.63-.33-.91-.05-.29-.06-.51-.02-.67Z" fill="#f0f1f1"></path>
      <path d="M410.65,560.44v1.54h-1.65v-1.54h1.65Zm-1.46,3.17h1.27v7.93h-1.27v-7.93Z" fill="#f0f1f1"></path>
      <path d="M415.47,570.28c-.56,0-1.09-.13-1.59-.4s-.91-.66-1.22-1.17c-.31-.51-.47-1.12-.47-1.82s.15-1.32,.46-1.83,.71-.91,1.21-1.19,1.04-.42,1.62-.42c.18,0,.35,.01,.52,.04s.32,.07,.47,.12h3.22v1.36c-.45,0-.91-.08-1.36-.25s-.83-.34-1.15-.52l-.06-.06c.37,.2,.67,.44,.91,.71,.24,.28,.42,.58,.54,.93,.12,.34,.18,.72,.18,1.12,0,.71-.15,1.32-.45,1.82-.3,.51-.7,.9-1.2,1.17s-1.04,.4-1.62,.4Zm2.33,4.42v-.35c0-.56-.15-.97-.44-1.22-.29-.25-.73-.38-1.31-.38h-1.59c-.35,0-.65-.03-.91-.09-.26-.06-.47-.15-.64-.26-.17-.12-.3-.26-.38-.43-.08-.17-.13-.36-.13-.57,0-.4,.12-.71,.37-.91,.24-.21,.54-.33,.9-.39s.7-.05,1.03,0l.76,.17c-.57,.03-1.01,.09-1.32,.17s-.47,.26-.47,.54c0,.16,.06,.29,.18,.39,.12,.1,.3,.15,.55,.15h1.65c.55,0,1.05,.08,1.51,.23,.45,.15,.82,.41,1.09,.78,.27,.37,.41,.86,.41,1.5v.67h-1.27Zm-2.33-5.61c.35,0,.67-.08,.98-.25,.3-.17,.55-.42,.74-.75,.19-.33,.29-.73,.29-1.21s-.09-.88-.28-1.21c-.19-.33-.43-.59-.74-.76-.31-.17-.63-.26-.98-.26s-.68,.09-.98,.26c-.31,.17-.55,.42-.75,.75s-.29,.73-.29,1.22,.09,.88,.29,1.21c.19,.33,.44,.58,.75,.75,.31,.17,.63,.25,.98,.25Z" fill="#f0f1f1"></path>
      <path d="M421.16,563.61h1.27v7.93h-1.27v-7.93Zm4-.16c.42,0,.8,.06,1.14,.19,.34,.13,.62,.31,.86,.56,.23,.24,.41,.54,.54,.88s.19,.73,.19,1.17v5.3h-1.27v-4.98c0-.61-.14-1.07-.43-1.38-.29-.31-.71-.46-1.28-.46-.43,0-.84,.11-1.21,.33-.37,.22-.67,.53-.91,.91-.24,.39-.38,.83-.44,1.34l-.02-.92c.05-.44,.16-.85,.33-1.21,.16-.36,.37-.67,.62-.93,.25-.26,.53-.46,.86-.59,.32-.14,.66-.21,1.02-.21Z" fill="#f0f1f1"></path>
      <path d="M433.83,561.23h1.27v10.31h-1.27v-10.31Z" fill="#f0f1f1"></path>
      <path d="M437.72,563.61h1.27v7.93h-1.27v-7.93Zm4-.16c.42,0,.8,.06,1.14,.19,.34,.13,.62,.31,.86,.56,.23,.24,.41,.54,.54,.88s.19,.73,.19,1.17v5.3h-1.27v-4.98c0-.61-.14-1.07-.43-1.38-.29-.31-.71-.46-1.28-.46-.43,0-.84,.11-1.21,.33-.37,.22-.67,.53-.91,.91-.24,.39-.38,.83-.44,1.34l-.02-.92c.05-.44,.16-.85,.33-1.21,.16-.36,.37-.67,.62-.93,.25-.26,.53-.46,.86-.59,.32-.14,.66-.21,1.02-.21Z" fill="#f0f1f1"></path>
      <path d="M452.83,571.54l-3.71-10.31h1.36l3.19,8.94h-.38l3.06-8.94h1.36l3.06,8.94h-.38l3.19-8.94h1.33l-3.68,10.31h-1.33l-3.04-9.26h.35l-3.04,9.26h-1.33Z" fill="#f0f1f1"></path>
      <path d="M467.83,560.44v1.54h-1.65v-1.54h1.65Zm-1.46,3.17h1.27v7.93h-1.27v-7.93Z" fill="#f0f1f1"></path>
      <path d="M469.26,563.61h4.66v1.19h-4.66v-1.19Zm1.7-2.06h1.27v9.99h-1.27v-9.99Z" fill="#f0f1f1"></path>
      <path d="M475.62,571.54v-11.1h1.27v11.1h-1.27Zm5.46,0v-4.98c0-.41-.06-.75-.19-1.02-.13-.27-.32-.47-.57-.61-.25-.14-.57-.21-.95-.21-.43,0-.84,.11-1.21,.33-.37,.22-.67,.53-.91,.91-.24,.39-.38,.83-.44,1.34l-.02-.92c.05-.44,.16-.85,.33-1.21,.16-.36,.37-.67,.62-.93,.25-.26,.53-.46,.86-.59,.32-.14,.66-.21,1.02-.21,.42,0,.8,.06,1.14,.19,.34,.13,.62,.31,.86,.56s.41,.54,.54,.88c.13,.34,.19,.73,.19,1.17v5.3h-1.27Z" fill="#f0f1f1"></path>
      <path d="M492.35,571.7c-.75,0-1.42-.13-2.02-.38-.6-.25-1.11-.61-1.53-1.07-.42-.46-.75-1.01-.97-1.66-.22-.65-.33-1.35-.33-2.12s.12-1.5,.36-2.17c.24-.66,.59-1.23,1.03-1.71,.44-.48,.97-.85,1.58-1.12,.61-.26,1.28-.4,2.01-.4,.79,0,1.5,.15,2.11,.45,.61,.3,1.11,.72,1.49,1.27,.38,.54,.61,1.18,.68,1.91h-1.08c-.14-.51-.36-.94-.67-1.31-.31-.37-.67-.65-1.1-.84-.43-.2-.91-.29-1.43-.29-.73,0-1.37,.18-1.93,.55-.56,.36-.99,.86-1.31,1.5-.32,.63-.48,1.35-.48,2.16s.14,1.51,.43,2.12c.29,.61,.7,1.08,1.24,1.42s1.18,.51,1.92,.51c.57,0,1.07-.11,1.5-.33,.43-.22,.77-.55,1.04-.98,.26-.43,.44-.95,.54-1.58h.78c-.17,1.36-.6,2.38-1.29,3.06-.69,.68-1.54,1.01-2.57,1.01Zm3.6-.16c0-.35,0-.74,.02-1.18,.02-.44,.04-.88,.07-1.34,.03-.45,.06-.86,.08-1.22h-3.49v-1.19h4.55v4.93h-1.24Z" fill="#f0f1f1"></path>
      <path d="M502.61,571.7c-.68,0-1.31-.16-1.9-.49-.59-.33-1.07-.8-1.44-1.42-.36-.62-.55-1.35-.55-2.2s.18-1.58,.55-2.2c.37-.62,.84-1.1,1.44-1.44,.59-.34,1.23-.51,1.9-.51s1.31,.17,1.9,.51c.59,.34,1.06,.82,1.42,1.44,.36,.62,.54,1.35,.54,2.2s-.18,1.58-.54,2.2c-.36,.62-.83,1.09-1.42,1.42-.59,.33-1.22,.49-1.9,.49Zm0-1.19c.44,0,.86-.11,1.25-.33,.39-.22,.71-.55,.96-.99,.25-.44,.37-.97,.37-1.59s-.12-1.16-.37-1.59c-.25-.44-.57-.77-.96-1.01-.39-.23-.81-.35-1.25-.35s-.86,.11-1.26,.34c-.4,.23-.72,.56-.97,1-.25,.44-.38,.98-.38,1.61s.12,1.16,.37,1.59c.25,.44,.57,.77,.98,.99,.4,.22,.83,.33,1.27,.33Z" fill="#f0f1f1"></path>
      <path d="M511.52,571.7c-.68,0-1.31-.16-1.9-.49-.59-.33-1.07-.8-1.44-1.42-.36-.62-.55-1.35-.55-2.2s.18-1.58,.55-2.2c.37-.62,.84-1.1,1.44-1.44,.59-.34,1.23-.51,1.9-.51s1.31,.17,1.9,.51c.59,.34,1.06,.82,1.42,1.44,.36,.62,.54,1.35,.54,2.2s-.18,1.58-.54,2.2c-.36,.62-.83,1.09-1.42,1.42-.59,.33-1.22,.49-1.9,.49Zm0-1.19c.44,0,.86-.11,1.25-.33,.39-.22,.71-.55,.96-.99,.25-.44,.37-.97,.37-1.59s-.12-1.16-.37-1.59c-.25-.44-.57-.77-.96-1.01-.39-.23-.81-.35-1.25-.35s-.86,.11-1.26,.34c-.4,.23-.72,.56-.97,1-.25,.44-.38,.98-.38,1.61s.12,1.16,.37,1.59c.25,.44,.57,.77,.98,.99,.4,.22,.83,.33,1.27,.33Z" fill="#f0f1f1"></path>
      <path d="M519.83,570.28c-.56,0-1.09-.13-1.59-.4s-.91-.66-1.22-1.17c-.31-.51-.47-1.12-.47-1.82s.15-1.32,.46-1.83,.71-.91,1.21-1.19,1.04-.42,1.62-.42c.18,0,.35,.01,.52,.04s.32,.07,.47,.12h3.22v1.36c-.45,0-.91-.08-1.36-.25s-.83-.34-1.15-.52l-.06-.06c.37,.2,.67,.44,.91,.71,.24,.28,.42,.58,.54,.93,.12,.34,.18,.72,.18,1.12,0,.71-.15,1.32-.45,1.82-.3,.51-.7,.9-1.2,1.17s-1.04,.4-1.62,.4Zm2.33,4.42v-.35c0-.56-.15-.97-.44-1.22-.29-.25-.73-.38-1.31-.38h-1.59c-.35,0-.65-.03-.91-.09-.26-.06-.47-.15-.64-.26-.17-.12-.3-.26-.38-.43-.08-.17-.13-.36-.13-.57,0-.4,.12-.71,.37-.91,.24-.21,.54-.33,.9-.39s.7-.05,1.03,0l.76,.17c-.57,.03-1.01,.09-1.32,.17s-.47,.26-.47,.54c0,.16,.06,.29,.18,.39,.12,.1,.3,.15,.55,.15h1.65c.55,0,1.05,.08,1.51,.23,.45,.15,.82,.41,1.09,.78,.27,.37,.41,.86,.41,1.5v.67h-1.27Zm-2.33-5.61c.35,0,.67-.08,.98-.25,.3-.17,.55-.42,.74-.75,.19-.33,.29-.73,.29-1.21s-.09-.88-.28-1.21c-.19-.33-.43-.59-.74-.76-.31-.17-.63-.26-.98-.26s-.68,.09-.98,.26c-.31,.17-.55,.42-.75,.75s-.29,.73-.29,1.22,.09,.88,.29,1.21c.19,.33,.44,.58,.75,.75,.31,.17,.63,.25,.98,.25Z" fill="#f0f1f1"></path>
      <path d="M525.68,560.44h1.27v11.1h-1.27v-11.1Z" fill="#f0f1f1"></path>
      <path d="M534.78,568.98h1.19c-.08,.52-.27,.98-.56,1.39-.29,.41-.67,.73-1.14,.97s-1.01,.36-1.62,.36c-.74,0-1.41-.18-2-.53-.59-.35-1.06-.84-1.4-1.46-.34-.62-.52-1.32-.52-2.12s.17-1.5,.5-2.12,.79-1.12,1.37-1.47c.58-.36,1.24-.54,1.97-.54,.77,0,1.42,.17,1.96,.52,.53,.34,.93,.85,1.19,1.51,.26,.66,.36,1.47,.31,2.43h-6.03c.05,.52,.2,.97,.43,1.36,.23,.39,.54,.7,.92,.91s.81,.33,1.3,.33c.54,0,1-.14,1.37-.42s.63-.65,.77-1.1Zm-2.17-4.35c-.66,0-1.21,.19-1.65,.57-.44,.38-.74,.9-.89,1.55h4.65c-.04-.7-.27-1.23-.67-1.59-.41-.36-.89-.54-1.44-.54Z" fill="#f0f1f1"></path>
    </g>
    <g>
      <path d="M576.26,568.71h-10.03c-.55,0-1-.45-1-1s.45-1,1-1h10.03c.55,0,1,.45,1,1s-.45,1-1,1Z" fill="#fff"></path>
      <path d="M573.21,571.3c-.29,0-.59-.13-.79-.38-.34-.43-.27-1.06,.16-1.41l2.34-1.85-2.37-2.08c-.42-.36-.46-1-.09-1.41,.36-.42,1-.46,1.41-.09l2.91,2.54c.32,.27,.49,.68,.48,1.1-.01,.42-.21,.81-.54,1.08l-2.89,2.29c-.18,.15-.4,.22-.62,.22Zm2.25-3.17h0s0,0,0,0Zm.02-.9s0,0,0,0h0Z" fill="#fff"></path>
    </g>
  </g>
  <path d="M303.87,246.01c-.15,0-.31-.07-.4-.21-3.27-4.49-10.37-5.44-10.45-5.45-.27-.04-.47-.29-.43-.56,.03-.27,.29-.47,.56-.43,.31,.04,7.6,1.02,11.13,5.85,.16,.22,.11,.54-.11,.7-.09,.06-.19,.1-.29,.1Z" fill="#2f2e41"></path>
</svg>
